<svg width="100" height="100" viewBox="0 0 100 100" fill="none" xmlns="http://www.w3.org/2000/svg">
<path d="M49.9992 99.9983C77.6129 99.9983 99.9983 77.6129 99.9983 49.9992C99.9983 22.3854 77.6129 0 49.9992 0C22.3854 0 0 22.3854 0 49.9992C0 77.6129 22.3854 99.9983 49.9992 99.9983Z" fill="#428FD6"/>
<path d="M49.1736 15.5188H41.723V17.0854H49.1736V15.5188Z" fill="white"/>
<path d="M48.2888 41.3609L48.2888 16.3021H42.6095L42.6095 41.3609H48.2888Z" fill="white"/>
<path d="M49.1736 27.2649H41.723V28.8315H49.1736V27.2649Z" fill="white"/>
<path d="M47.9572 39.9059H49.6845V39.0127H49.0366V30.5571C49.0366 30.4641 49.1127 30.3879 49.2057 30.3879H53.8514C53.8852 30.3879 53.9174 30.3981 53.9444 30.4167L57.0675 32.4993C58.1502 33.2217 59.1585 34.049 60.0789 34.9693L61.1075 35.9979C61.8434 36.7338 62.4998 37.5476 63.0632 38.4222L64.958 41.3609L65.721 43.3623C66.2742 44.8121 66.6075 46.3381 66.709 47.8878L66.7259 48.1551C66.8139 49.4984 66.797 50.8451 66.6785 52.1866C66.484 54.3691 65.9122 56.5024 64.9884 58.4903C64.7956 58.9047 64.5621 59.3006 64.2914 59.6694L63.8888 60.2176C63.3643 60.9332 62.7857 61.6065 62.1581 62.2342C61.9601 62.4321 61.8079 62.6724 61.7148 62.938C61.6641 63.0835 61.7013 63.2442 61.8096 63.3525L62.0853 63.6282L62.1665 63.7094C62.7265 64.2694 63.1698 64.9343 63.4726 65.6651L63.5149 65.7683C63.5267 65.7954 63.5369 65.8242 63.547 65.8512L63.6891 66.2556C63.9277 66.9323 64.0495 67.6428 64.0495 68.3602V69.6087H51.1767V69.3651C51.1767 69.0352 51.3577 68.734 51.6487 68.5801L52.7856 67.9761C53.0579 67.8306 53.2745 67.5972 53.3963 67.3129L53.7685 66.4552V64.6433H40.2054V59.8911H49.6981L49.6997 61.5592L53.5316 61.549V59.8911V56.2825C53.5316 55.8731 53.4234 55.4721 53.2153 55.1185L52.8888 54.5602C52.7382 54.3031 52.4641 54.1457 52.1664 54.1457H33.2133V52.5047H52.185C52.5487 52.5047 52.9074 52.5859 53.2339 52.7432L53.513 52.8769C53.6924 52.9632 53.8429 53.0968 53.9495 53.266L54.6516 54.3775L55.2539 55.401C55.4264 55.6954 55.6548 55.9526 55.9255 56.159C56.3772 56.5058 56.9355 56.6868 57.5057 56.6733C58.0572 56.6597 58.5884 56.4719 59.0266 56.1387C59.6627 55.6531 60.177 55.0255 60.5289 54.3065C60.8334 53.6856 61.0364 53.0207 61.1345 52.3372C61.2953 51.2122 61.3765 50.0787 61.3765 48.9435C61.3765 47.5241 61.1921 46.1097 60.83 44.7377L60.7708 44.5161L60.0247 42.9258C59.661 42.1493 59.1636 41.4421 58.558 40.8347L58.4514 40.7282C58.1147 40.3915 57.7104 40.131 57.2637 39.9652C56.768 39.7808 56.2216 39.7892 55.7327 39.9905C55.2708 40.1817 54.8715 40.4998 54.5839 40.9092C54.1356 41.547 53.8463 42.2846 53.7414 43.0577L53.6433 43.7818H45.4466V48.3598H43.0172V43.9967H41.4015V47.5393H39.0871V43.9527H37.8978C37.7676 43.9527 37.661 43.8461 37.661 43.7159V43.7142C37.661 43.5839 37.5544 43.4773 37.4241 43.4773H36.5816V41.6637H37.9638V40.4981H40.8584L42.6078 39.0296H45.4483L47.9572 39.9059Z" fill="white"/>
<path d="M65.6094 76.4638H34.9846V70.6475H64.8752L65.6094 76.4638Z" fill="white"/>
</svg>
