<svg width="100" height="100" viewBox="0 0 100 100" fill="none" xmlns="http://www.w3.org/2000/svg">
<circle cx="30" cy="70" r="30" fill="#FFBF1B"/>
<g clip-path="url(#clip0_17_177)">
<path d="M95.9811 77.3348V28.0273C95.9811 27.2914 95.3844 26.6947 94.6485 26.6947H81.3221C80.5862 26.6947 79.9895 27.2914 79.9895 28.0273V77.3348H77.3242V46.6842C77.3242 45.9483 76.7276 45.3516 75.9916 45.3516H62.6653C61.9293 45.3516 61.3326 45.9483 61.3326 46.6842V77.3348H58.6674V33.3579C58.6674 32.6219 58.0707 32.0252 57.3347 32.0252H44.0084C43.2725 32.0252 42.6758 32.6219 42.6758 33.3579V77.3348H40.0105V52.0147C40.0105 51.2788 39.4138 50.6821 38.6779 50.6821H25.3515C24.6156 50.6821 24.0189 51.2788 24.0189 52.0147V77.3348H20.021V80.0001H99.979V77.3348H95.9811ZM37.3452 77.3348H26.6842V53.3474H37.3452V77.3348ZM56.0021 77.3348H45.341V34.6905H56.0021V77.3348ZM74.659 77.3348H63.9979V48.0168H74.659V77.3348ZM93.3158 77.3348H82.6548V29.36H93.3158V77.3348Z" fill="#3BA1FF"/>
<path d="M28.34 36.251C29.4301 36.9716 30.7081 37.3559 32.0149 37.3557C35.6948 37.3555 38.6779 34.3723 38.6778 30.6922C38.6778 29.3859 38.2936 28.1082 37.5734 27.0185L47.0057 17.5848C48.0868 18.3082 49.3577 18.6958 50.6585 18.6988C51.0508 18.699 51.4422 18.6647 51.8285 18.5962C53.0964 18.374 54.2717 17.7867 55.2108 16.9065L63.1173 22.9846C61.7976 26.4198 63.5126 30.2744 66.9478 31.5941C70.383 32.9137 74.2376 31.1988 75.5572 27.7636C76.3312 25.749 76.0815 23.4843 74.8871 21.6866L84.3168 12.2569C87.3947 14.2942 91.5414 13.4504 93.5785 10.3726C95.6157 7.29467 94.772 3.14801 91.6941 1.11092C88.6162 -0.926348 84.4696 -0.0826243 82.4325 2.99526C80.9522 5.23159 80.9522 8.13623 82.4325 10.3726L73.0028 19.8023C70.3616 18.0565 66.8568 18.4102 64.6178 20.6485C64.5925 20.6738 64.5778 20.7031 64.5539 20.7271L56.7619 14.7383C58.2587 11.3764 56.7466 7.43776 53.3847 5.94105C50.0228 4.44433 46.0842 5.95637 44.5875 9.31827C43.6618 11.3977 43.8615 13.8059 45.1174 15.7043L35.689 25.134C32.6191 23.1045 28.4855 23.9481 26.456 27.018C24.4268 30.0879 25.2701 34.2215 28.34 36.251ZM87.9856 2.70724C90.1936 2.70724 91.9835 4.49714 91.9835 6.70514C91.9835 8.91315 90.1936 10.703 87.9856 10.703C85.7775 10.703 83.9877 8.91315 83.9877 6.70514C83.9877 4.49714 85.7775 2.70724 87.9856 2.70724ZM66.5003 22.536C67.2503 21.7856 68.2677 21.3639 69.3287 21.3641C71.5367 21.3638 73.3268 23.1535 73.3271 25.3615C73.3273 26.4225 72.9056 27.4399 72.1552 28.1899C70.5727 29.6982 68.0847 29.6982 66.5022 28.1899C64.9403 26.629 64.9397 24.0977 66.5003 22.536ZM47.3972 9.74272C47.3974 9.74255 47.3974 9.74238 47.3975 9.74222C48.0035 8.87167 48.9324 8.27948 49.9775 8.09775C50.2095 8.05793 50.4444 8.03794 50.6798 8.03778C51.4979 8.03861 52.2958 8.29131 52.9653 8.7614C54.7738 10.0281 55.2133 12.5209 53.9466 14.3295C52.6799 16.138 50.1871 16.5773 48.3785 15.3108C46.57 14.0441 46.1305 11.5513 47.3972 9.74272ZM29.1866 27.8665C29.1873 27.8659 29.1878 27.8654 29.1884 27.8647C30.7503 26.3037 33.2818 26.3042 34.8428 27.866C36.4038 29.4279 36.4033 31.9594 34.8415 33.5204C33.2589 35.0288 30.7709 35.0288 29.1884 33.5204C27.6266 31.9595 27.6259 29.4282 29.1866 27.8665Z" fill="#3BA1FF"/>
</g>
<defs>
<clipPath id="clip0_17_177">
<rect width="80" height="80" fill="white" transform="translate(20)"/>
</clipPath>
</defs>
</svg>
