<svg width="100" height="100" viewBox="0 0 100 100" fill="none" xmlns="http://www.w3.org/2000/svg">
<circle cx="30" cy="70" r="30" fill="#FFBF1B"/>
<path d="M60.5524 46.3367C52.8691 51.5491 42.5668 50.5713 36.0013 44.0064C29.4358 37.4415 28.4569 27.1393 33.6686 19.4555C33.9283 19.0745 33.9651 18.5838 33.765 18.1683C33.5649 17.7529 33.1584 17.4757 32.6986 17.4412C32.2387 17.4068 31.7954 17.6203 31.5357 18.0013C25.6237 26.7096 26.7305 38.3896 34.173 45.8324C41.6155 53.2752 53.2955 54.3825 62.0041 48.4709C62.5934 48.0701 62.7462 47.2674 62.3453 46.678C61.9445 46.0887 61.1418 45.9359 60.5524 46.3367Z" fill="#3BA1FF"/>
<path d="M65.1832 14.8141C57.739 7.37016 46.0551 6.26736 37.3496 12.187C36.9682 12.4468 36.7542 12.8903 36.7885 13.3506C36.8227 13.8108 37.0999 14.2178 37.5156 14.4183C37.9313 14.6188 38.4223 14.5823 38.8038 14.3225C46.4875 9.11214 56.7884 10.0913 63.3528 16.656C69.9172 23.2207 70.8958 33.5217 65.6851 41.2051C65.2843 41.7948 65.4373 42.5978 66.027 42.9986C66.6167 43.3995 67.4197 43.2464 67.8206 42.6567C73.7294 33.9436 72.623 22.2628 65.1832 14.8141Z" fill="#3BA1FF"/>
<path d="M82.1317 52.6903C81.409 51.9533 80.4194 51.5392 79.3872 51.5419C78.8125 51.5448 78.2458 51.6771 77.7292 51.929L72.6969 46.8968C81.3542 34.8675 79.3165 18.2054 68.0155 8.61692C56.7145 -0.97153 39.9429 -0.268223 29.4844 10.2327C19.0258 20.7336 18.3902 37.5079 28.0243 48.7701C37.6583 60.0323 54.3286 62.0026 66.3227 53.2968L71.3408 58.3135C70.6319 59.7896 70.9285 61.5521 72.0814 62.7148L74.3395 64.9729C74.8458 65.4619 75.6506 65.4549 76.1483 64.9572C76.646 64.4595 76.653 63.6547 76.164 63.1484L73.9059 60.8903C73.6636 60.6483 73.5275 60.3199 73.5275 59.9774C73.5275 59.6349 73.6636 59.3065 73.9059 59.0645L78.4801 54.5032C78.717 54.2582 79.0425 54.1187 79.3834 54.1161C79.7277 54.1161 80.0574 54.2557 80.2969 54.5032L95.8066 70.0129C96.0489 70.2549 96.185 70.5833 96.185 70.9258C96.185 71.2683 96.0489 71.5967 95.8066 71.8387L91.2375 76.3935C90.7305 76.8919 89.9175 76.8919 89.4104 76.3935L80.0298 67.0129C79.5235 66.5239 78.7187 66.5309 78.221 67.0286C77.7233 67.5263 77.7163 68.3311 78.2053 68.8374L87.5911 78.2245C88.3202 78.949 89.3065 79.3554 90.3343 79.3548C91.3584 79.3576 92.3414 78.9522 93.0659 78.2284L97.6401 73.6671C99.1402 72.1524 99.1402 69.7121 97.6401 68.1974L82.1317 52.6903ZM23.8711 30.3226C23.8711 16.0701 35.425 4.51613 49.6776 4.51613C63.9301 4.51613 75.484 16.0701 75.484 30.3226C75.484 44.5751 63.9301 56.129 49.6776 56.129C35.4318 56.1127 23.8875 44.5683 23.8711 30.3226ZM71.084 48.9342L75.7292 53.5858L72.9885 56.3187L68.3434 51.6735C69.3182 50.8239 70.2339 49.9086 71.084 48.9342Z" fill="#3BA1FF"/>
<path d="M43.226 36.7742C43.226 36.0615 42.6483 35.4838 41.9357 35.4838C41.2231 35.4838 40.6454 36.0615 40.6454 36.7742C40.6454 40.6671 44.017 43.8877 48.3873 44.4283V45.8064C48.3873 46.519 48.965 47.0967 49.6776 47.0967C50.3903 47.0967 50.968 46.519 50.968 45.8064V44.4283C55.3383 43.8877 58.7099 40.6671 58.7099 36.7742C58.7099 32.8812 55.3383 29.6606 50.968 29.12V18.8141C53.9086 19.2941 56.1293 21.378 56.1293 23.8709C56.1293 24.5835 56.707 25.1612 57.4196 25.1612C58.1322 25.1612 58.7099 24.5835 58.7099 23.8709C58.7099 19.978 55.3383 16.7574 50.968 16.2167V14.8387C50.968 14.126 50.3903 13.5483 49.6776 13.5483C48.965 13.5483 48.3873 14.126 48.3873 14.8387V16.2167C44.017 16.7574 40.6454 19.978 40.6454 23.8709C40.6454 27.7638 44.017 30.9845 48.3873 31.5251V41.8309C45.4467 41.3509 43.226 39.2671 43.226 36.7742ZM56.1293 36.7742C56.1293 39.2671 53.9086 41.3509 50.968 41.8309V31.7174C53.9086 32.1974 56.1293 34.2812 56.1293 36.7742ZM43.226 23.8709C43.226 21.378 45.4467 19.2941 48.3873 18.8141V28.9277C45.4467 28.4477 43.226 26.3638 43.226 23.8709Z" fill="#3BA1FF"/>
</svg>
