<svg width="105" height="80" viewBox="0 0 105 80" fill="none" xmlns="http://www.w3.org/2000/svg">
<rect y="10" width="60" height="60" rx="30" fill="#3BA1FF"/>
<path d="M65 47.9651C68.8197 47.9651 72.5535 46.8324 75.7295 44.7104C78.9054 42.5883 81.3807 39.5721 82.8424 36.0432C84.3041 32.5143 84.6866 28.6312 83.9414 24.8849C83.1963 21.1387 81.3569 17.6975 78.656 14.9966C75.9551 12.2957 72.5139 10.4564 68.7677 9.71118C65.0214 8.966 61.1383 9.34846 57.6094 10.8102C54.0805 12.2719 51.0643 14.7472 48.9422 17.9231C46.8202 21.0991 45.6875 24.8329 45.6875 28.6526C45.6926 33.773 47.729 38.6822 51.3497 42.3029C54.9704 45.9236 59.8796 47.96 65 47.9651ZM65 11.5332C68.387 11.5332 71.698 12.5376 74.5142 14.4193C77.3303 16.301 79.5253 18.9756 80.8214 22.1048C82.1176 25.234 82.4567 28.6772 81.796 31.9991C81.1352 35.3211 79.5042 38.3724 77.1092 40.7674C74.7142 43.1624 71.6629 44.7934 68.3409 45.4542C65.019 46.1149 61.5757 45.7758 58.4466 44.4797C55.3174 43.1835 52.6428 40.9886 50.7611 38.1724C48.8794 35.3562 47.875 32.0452 47.875 28.6582C47.8793 24.1177 49.6849 19.7644 52.8956 16.5538C56.1062 13.3431 60.4595 11.5375 65 11.5332Z" fill="white"/>
<path d="M58.4925 31.5788L56.0781 38.8219C56.0062 39.0381 56.0035 39.2714 56.0705 39.4892C56.1376 39.707 56.271 39.8985 56.4521 40.0368C56.6332 40.1751 56.853 40.2533 57.0808 40.2606C57.3085 40.268 57.5329 40.204 57.7225 40.0776L65 35.2257L72.2775 40.0776C72.4671 40.204 72.6915 40.268 72.9193 40.2606C73.147 40.2533 73.3668 40.1751 73.548 40.0368C73.7291 39.8985 73.8625 39.707 73.9295 39.4892C73.9966 39.2714 73.9939 39.0381 73.9219 38.8219L71.5075 31.5788L76.2857 26.8007C76.4388 26.6478 76.5432 26.453 76.5855 26.2408C76.6278 26.0286 76.6062 25.8086 76.5234 25.6087C76.4406 25.4088 76.3004 25.2379 76.1204 25.1178C75.9405 24.9977 75.7289 24.9336 75.5125 24.9338H68.4163L66.0375 17.7969C65.9649 17.5793 65.8256 17.3899 65.6394 17.2558C65.4532 17.1216 65.2295 17.0494 65 17.0494C64.7705 17.0494 64.5469 17.1216 64.3607 17.2558C64.1745 17.3899 64.0352 17.5793 63.9625 17.7969L61.5838 24.9338H54.4875C54.2711 24.9336 54.0596 24.9977 53.8796 25.1178C53.6997 25.2379 53.5594 25.4088 53.4766 25.6087C53.3938 25.8086 53.3722 26.0286 53.4146 26.2408C53.4569 26.453 53.5612 26.6478 53.7144 26.8007L58.4925 31.5788ZM62.375 27.1213C62.6048 27.1211 62.8287 27.0486 63.015 26.914C63.2012 26.7793 63.3403 26.5895 63.4125 26.3713L65 21.6019L66.5907 26.3751C66.6629 26.5932 66.802 26.7831 66.9882 26.9177C67.1744 27.0523 67.3984 27.1249 67.6282 27.1251H72.875L69.4857 30.5138C69.3421 30.6574 69.2414 30.8381 69.1949 31.0357C69.1483 31.2333 69.1576 31.44 69.2219 31.6326L70.8419 36.4932L65.6069 33.0001C65.4272 32.8802 65.216 32.8163 65 32.8163C64.784 32.8163 64.5729 32.8802 64.3932 33.0001L59.1613 36.4882L60.7813 31.6276C60.8455 31.435 60.8549 31.2283 60.8083 31.0307C60.7617 30.8331 60.661 30.6524 60.5175 30.5088L57.1281 27.1201L62.375 27.1213Z" fill="white"/>
<path d="M91.6037 68.4613L81.4619 47.8551C82.2513 47.6991 82.9622 47.2742 83.4735 46.6529C83.9849 46.0316 84.265 45.2522 84.2662 44.4476V42.3851C84.2657 42.1307 84.3409 41.8819 84.4823 41.6704C84.6236 41.459 84.8247 41.2943 85.06 41.1976L86.9675 40.4063C87.3889 40.2316 87.7718 39.9756 88.0943 39.653C88.4167 39.3303 88.6725 38.9472 88.8469 38.5257C89.0213 38.1041 89.111 37.6524 89.1107 37.1962C89.1105 36.74 89.0204 36.2883 88.8456 35.8669L88.0625 33.9663C87.9645 33.7314 87.9386 33.4727 87.9882 33.223C88.0377 32.9734 88.1604 32.7441 88.3406 32.5644L89.7937 31.1119C90.444 30.4597 90.8091 29.5763 90.8091 28.6554C90.8091 27.7344 90.444 26.851 89.7937 26.1988L88.3337 24.7394C88.1534 24.5598 88.0305 24.3306 87.9808 24.081C87.931 23.8314 87.9566 23.5726 88.0544 23.3376L88.8444 21.4294C89.0188 21.0079 89.1084 20.556 89.1082 20.0998C89.108 19.6436 89.0179 19.1919 88.8431 18.7704C88.6683 18.349 88.4122 17.9662 88.0894 17.6437C87.7666 17.3213 87.3835 17.0656 86.9619 16.8913L85.0625 16.1057C84.8273 16.0088 84.6262 15.8442 84.4847 15.6327C84.3433 15.4213 84.2679 15.1726 84.2681 14.9182V12.8632C84.2671 11.9421 83.9008 11.0591 83.2496 10.4077C82.5984 9.7564 81.7154 9.38996 80.7944 9.3888H78.7269C78.4725 9.38924 78.2238 9.314 78.0123 9.17265C77.8008 9.03131 77.6362 8.83025 77.5394 8.59505L76.75 6.68755C76.575 6.2661 76.3187 5.88326 75.9957 5.5609C75.6727 5.23855 75.2894 4.983 74.8676 4.80888C74.4458 4.63475 73.9938 4.54545 73.5375 4.54608C73.0812 4.54671 72.6294 4.63726 72.2081 4.81255L70.3125 5.5963C70.0773 5.69397 69.8184 5.71961 69.5686 5.66999C69.3188 5.62036 69.0894 5.4977 68.9094 5.31755L67.4562 3.86568C66.8043 3.21518 65.9209 2.84985 65 2.84985C64.079 2.84985 63.1957 3.21518 62.5437 3.86568L61.0831 5.32568C60.9036 5.50596 60.6745 5.62873 60.4249 5.67837C60.1754 5.72801 59.9167 5.70227 59.6819 5.60443L57.7731 4.81255C56.9217 4.46062 55.9655 4.46115 55.1145 4.81403C54.2635 5.16692 53.5875 5.84328 53.235 6.69443L52.45 8.59443C52.3532 8.82974 52.1886 9.03093 51.9772 9.17239C51.7657 9.31386 51.5169 9.38919 51.2625 9.3888H49.2075C48.2864 9.38996 47.4035 9.7564 46.7522 10.4077C46.101 11.0591 45.7347 11.9421 45.7337 12.8632V14.9257C45.7342 15.18 45.6589 15.4288 45.5176 15.6402C45.3762 15.8517 45.1752 16.0163 44.94 16.1132L43.0325 16.9044C42.1819 17.2578 41.5066 17.9346 41.1549 18.7858C40.8033 19.6371 40.8042 20.5932 41.1575 21.4438L41.9437 23.3413C42.0416 23.5762 42.0674 23.8349 42.0179 24.0846C41.9684 24.3342 41.8458 24.5634 41.6656 24.7432L40.2125 26.1957C39.5621 26.8478 39.1969 27.7312 39.1969 28.6522C39.1969 29.5733 39.5621 30.4567 40.2125 31.1088L41.6725 32.5688C41.8528 32.7484 41.9757 32.9776 42.0255 33.2272C42.0752 33.4769 42.0496 33.7357 41.9519 33.9707L41.1619 35.8788C40.9874 36.3004 40.8978 36.7522 40.898 37.2084C40.8982 37.6647 40.9883 38.1164 41.1631 38.5378C41.3379 38.9592 41.594 39.3421 41.9168 39.6645C42.2396 39.9869 42.6227 40.2426 43.0444 40.4169L44.9375 41.2051C45.1727 41.302 45.3738 41.4666 45.5152 41.678C45.6567 41.8895 45.7321 42.1382 45.7319 42.3926V44.4463C45.7331 45.251 46.0132 46.0304 46.5246 46.6517C47.0359 47.273 47.7468 47.6978 48.5362 47.8538L38.3944 68.4601C38.2989 68.6542 38.2632 68.8722 38.2916 69.0866C38.3201 69.301 38.4114 69.5021 38.5542 69.6646C38.6969 69.8271 38.8846 69.9436 39.0936 69.9994C39.3025 70.0552 39.5234 70.0478 39.7281 69.9782L49.4781 66.6607L52.7956 76.4107C52.8653 76.6155 52.9942 76.7951 53.166 76.9267C53.3378 77.0583 53.5447 77.136 53.7606 77.1501H53.8312C54.0355 77.15 54.2356 77.0928 54.409 76.9848C54.5824 76.8769 54.7222 76.7226 54.8125 76.5394L65 55.8463L75.1875 76.5413C75.2778 76.7245 75.4175 76.8788 75.5909 76.9867C75.7643 77.0946 75.9645 77.1519 76.1687 77.1519H76.2394C76.4553 77.1378 76.6621 77.0601 76.8339 76.9285C77.0056 76.7969 77.1346 76.6174 77.2044 76.4126L80.5219 66.6626L90.2719 69.9801C90.4766 70.0497 90.6974 70.0571 90.9064 70.0013C91.1153 69.9455 91.303 69.829 91.4458 69.6665C91.5885 69.504 91.6799 69.3028 91.7084 69.0884C91.7368 68.874 91.701 68.656 91.6056 68.4619L91.6037 68.4613ZM47.9212 44.4476V42.3938C47.9227 41.7062 47.7194 41.0337 47.3373 40.462C46.9552 39.8904 46.4115 39.4454 45.7756 39.1838L43.8781 38.3988C43.7219 38.3343 43.58 38.2397 43.4604 38.1203C43.3409 38.0009 43.246 37.8591 43.1813 37.703C43.1165 37.5469 43.0832 37.3796 43.0832 37.2106C43.0832 37.0416 43.1165 36.8743 43.1812 36.7182L43.9706 34.8126C44.2345 34.178 44.3038 33.4794 44.1696 32.8054C44.0354 32.1314 43.7037 31.5126 43.2169 31.0276L41.7569 29.5626C41.5158 29.3212 41.3805 28.994 41.3805 28.6529C41.3805 28.3118 41.5158 27.9846 41.7569 27.7432L43.2087 26.2907C43.6956 25.8052 44.0269 25.1859 44.1605 24.5115C44.294 23.8371 44.2238 23.1382 43.9587 22.5038L43.175 20.6094C43.1101 20.4534 43.0767 20.2861 43.0766 20.1171C43.0764 19.9481 43.1096 19.7807 43.1742 19.6246C43.2388 19.4684 43.3336 19.3266 43.4531 19.2071C43.5726 19.0876 43.7145 18.9928 43.8706 18.9282L45.7781 18.1376C46.4133 17.8753 46.9561 17.4302 47.3377 16.8588C47.7193 16.2873 47.9224 15.6153 47.9212 14.9282V12.8657C47.9217 12.5246 48.0574 12.1977 48.2985 11.9565C48.5396 11.7153 48.8664 11.5795 49.2075 11.5788H51.2619C51.9495 11.5802 52.6219 11.3768 53.1936 10.9947C53.7652 10.6126 54.2102 10.069 54.4719 9.43318L55.2569 7.53568C55.3213 7.37938 55.4158 7.2373 55.5351 7.11756C55.6545 6.99782 55.7962 6.90276 55.9523 6.83781C56.1083 6.77286 56.2757 6.7393 56.4447 6.73904C56.6138 6.73878 56.7812 6.77183 56.9375 6.8363L58.8456 7.62505C59.4797 7.88916 60.178 7.95887 60.8518 7.82533C61.5256 7.69179 62.1445 7.36104 62.63 6.87505L64.09 5.41443C64.3352 5.18059 64.6611 5.05014 65 5.05014C65.3389 5.05014 65.6647 5.18059 65.91 5.41443L67.3619 6.8663C67.8469 7.35367 68.4662 7.68557 69.1406 7.8197C69.815 7.95383 70.5141 7.88411 71.1487 7.61943L73.0462 6.83255C73.2023 6.76774 73.3696 6.73434 73.5386 6.73426C73.7075 6.73418 73.8749 6.76743 74.031 6.8321C74.1871 6.89677 74.3289 6.9916 74.4483 7.11115C74.5677 7.2307 74.6624 7.37262 74.7269 7.5288L75.5181 9.43568C75.7801 10.0709 76.225 10.6138 76.7964 10.9954C77.3678 11.3771 78.0398 11.5801 78.7269 11.5788H80.7925C81.1335 11.5795 81.4604 11.7153 81.7015 11.9565C81.9426 12.1977 82.0782 12.5246 82.0787 12.8657V14.9194C82.0782 15.6063 82.2818 16.2778 82.6639 16.8486C83.046 17.4194 83.5891 17.8637 84.2244 18.1251L86.125 18.9119C86.2812 18.9764 86.4231 19.0711 86.5427 19.1905C86.6622 19.3099 86.7571 19.4517 86.8218 19.6078C86.8865 19.7639 86.9199 19.9312 86.9199 20.1002C86.9199 20.2691 86.8866 20.4365 86.8219 20.5926L86.0294 22.5001C85.7654 23.1347 85.6962 23.8334 85.8304 24.5075C85.9646 25.1816 86.2962 25.8005 86.7831 26.2857L88.2431 27.7457C88.4841 27.9871 88.6195 28.3143 88.6195 28.6554C88.6195 28.9965 88.4841 29.3237 88.2431 29.5651L86.7912 31.0169C86.3044 31.5024 85.9731 32.1217 85.8395 32.7962C85.7059 33.4706 85.7762 34.1695 86.0412 34.8038L86.8275 36.7013C86.8922 36.8574 86.9256 37.0247 86.9257 37.1936C86.9258 37.3626 86.8926 37.5299 86.828 37.6861C86.7634 37.8422 86.6687 37.9841 86.5492 38.1036C86.4298 38.2231 86.2879 38.3179 86.1319 38.3826L84.2244 39.1732C83.5892 39.4354 83.0463 39.8805 82.6647 40.452C82.2831 41.0234 82.08 41.6954 82.0812 42.3826V44.4451C82.0807 44.786 81.9451 45.1129 81.7039 45.354C81.4628 45.5951 81.136 45.7308 80.795 45.7313H78.7381C78.0505 45.73 77.3781 45.9334 76.8065 46.3155C76.2348 46.6976 75.7898 47.2411 75.5281 47.8769L74.7431 49.7751C74.6788 49.9314 74.5843 50.0735 74.4649 50.1933C74.3456 50.3131 74.2038 50.4081 74.0477 50.473C73.8916 50.5379 73.7243 50.5714 73.5552 50.5716C73.3861 50.5717 73.2187 50.5385 73.0625 50.4738L71.1544 49.6876C70.5203 49.4233 69.8219 49.3535 69.1481 49.487C68.4743 49.6206 67.8553 49.9514 67.37 50.4376L65.91 51.8982C65.6647 52.132 65.3389 52.2625 65 52.2625C64.6611 52.2625 64.3352 52.132 64.09 51.8982L62.6381 50.4457C62.1526 49.9589 61.5333 49.6277 60.8589 49.4941C60.1845 49.3605 59.4856 49.4307 58.8512 49.6957L56.9537 50.4826C56.7977 50.5473 56.6305 50.5807 56.4615 50.5808C56.2926 50.5808 56.1253 50.5476 55.9693 50.483C55.8132 50.4184 55.6714 50.3237 55.5519 50.2043C55.4325 50.0848 55.3377 49.943 55.2731 49.7869L54.4819 47.8751C54.2199 47.2398 53.775 46.6968 53.2036 46.3151C52.6322 45.9333 51.9603 45.7301 51.2731 45.7313H49.2106C48.8695 45.7316 48.5422 45.5967 48.3005 45.356C48.0588 45.1154 47.9224 44.7887 47.9212 44.4476ZM54.0169 73.2063L51.1981 64.9219C51.1519 64.7859 51.0793 64.6603 50.9846 64.5523C50.8898 64.4443 50.7746 64.356 50.6457 64.2926C50.5168 64.2291 50.3766 64.1917 50.2332 64.1825C50.0898 64.1733 49.946 64.1924 49.81 64.2388L41.525 67.0582L50.9444 47.9213H51.2731C51.5274 47.921 51.7761 47.9963 51.9875 48.1377C52.1989 48.279 52.3636 48.48 52.4606 48.7151L53.25 50.6251C53.6036 51.4754 54.2804 52.1505 55.1316 52.5021C55.9828 52.8537 56.9387 52.853 57.7894 52.5001L59.6875 51.7144C59.9226 51.6165 60.1816 51.5907 60.4314 51.6404C60.6813 51.69 60.9107 51.8128 61.0906 51.9932L62.5425 53.4451C62.8043 53.6996 63.1052 53.9107 63.4337 54.0701L54.0169 73.2063ZM80.1875 64.2388C80.0515 64.1924 79.9077 64.1733 79.7643 64.1825C79.6209 64.1917 79.4807 64.2291 79.3518 64.2926C79.2229 64.356 79.1077 64.4443 79.0129 64.5523C78.9181 64.6603 78.8456 64.7859 78.7994 64.9219L75.9806 73.2063L66.5625 54.0719C66.891 53.9125 67.1919 53.7015 67.4537 53.4469L68.9144 51.9869C69.0938 51.8065 69.3229 51.6835 69.5724 51.6338C69.822 51.584 70.0807 51.6097 70.3156 51.7076L72.2237 52.4976C73.0753 52.8497 74.0318 52.8491 74.8829 52.4961C75.734 52.1431 76.4101 51.4665 76.7625 50.6151L77.5475 48.7182C77.6441 48.4828 77.8087 48.2814 78.0202 48.1399C78.2317 47.9983 78.4805 47.9229 78.735 47.9232H79.0525L88.4719 67.0601L80.1875 64.2388Z" fill="white"/>
</svg>
