<svg width="105" height="80" viewBox="0 0 105 80" fill="none" xmlns="http://www.w3.org/2000/svg">
<rect y="10" width="60" height="60" rx="30" fill="#3BA1FF"/>
<path d="M37.5 45H38.75V50C38.75 50.3315 38.8817 50.6495 39.1161 50.8839C39.3505 51.1183 39.6685 51.25 40 51.25H45C45.3315 51.25 45.6494 51.1183 45.8839 50.8839C46.1183 50.6495 46.25 50.3315 46.25 50V45H47.5C47.7355 45.0001 47.9663 44.9336 48.1657 44.8083C48.3651 44.6829 48.5251 44.5038 48.6271 44.2915C48.7291 44.0792 48.7691 43.8424 48.7424 43.6084C48.7157 43.3744 48.6234 43.1526 48.4762 42.9688L43.4762 36.7188C43.3549 36.5789 43.2049 36.4668 43.0365 36.3899C42.8681 36.3131 42.6851 36.2733 42.5 36.2733C42.3148 36.2733 42.1319 36.3131 41.9634 36.3899C41.795 36.4668 41.6451 36.5789 41.5237 36.7188L36.5237 42.9688C36.3765 43.1526 36.2843 43.3744 36.2576 43.6084C36.2309 43.8424 36.2708 44.0792 36.3729 44.2915C36.4749 44.5038 36.6348 44.6829 36.8343 44.8083C37.0337 44.9336 37.2644 45.0001 37.5 45ZM42.5 39.5L44.9025 42.5C44.5881 42.5246 44.2947 42.6671 44.081 42.8989C43.8673 43.1307 43.749 43.4347 43.75 43.75V48.75H41.25V43.75C41.2509 43.4347 41.1327 43.1307 40.919 42.8989C40.7053 42.6671 40.4118 42.5246 40.0975 42.5L42.5 39.5Z" fill="white"/>
<path d="M52.5 40H53.75V45C53.75 45.3315 53.8817 45.6495 54.1161 45.8839C54.3505 46.1183 54.6685 46.25 55 46.25H60C60.3315 46.25 60.6494 46.1183 60.8839 45.8839C61.1183 45.6495 61.25 45.3315 61.25 45V40H62.5C62.7355 40.0001 62.9663 39.9336 63.1657 39.8083C63.3651 39.6829 63.5251 39.5038 63.6271 39.2915C63.7291 39.0792 63.7691 38.8424 63.7424 38.6084C63.7157 38.3744 63.6234 38.1526 63.4762 37.9688L58.4762 31.7188C58.3549 31.5789 58.2049 31.4668 58.0365 31.3899C57.8681 31.3131 57.6851 31.2733 57.5 31.2733C57.3148 31.2733 57.1319 31.3131 56.9634 31.3899C56.795 31.4668 56.6451 31.5789 56.5237 31.7188L51.5237 37.9688C51.3765 38.1526 51.2843 38.3744 51.2576 38.6084C51.2309 38.8424 51.2708 39.0792 51.3729 39.2915C51.4749 39.5038 51.6348 39.6829 51.8343 39.8083C52.0337 39.9336 52.2644 40.0001 52.5 40ZM57.5 34.5L59.9025 37.5C59.5881 37.5246 59.2947 37.6671 59.081 37.8989C58.8673 38.1307 58.749 38.4347 58.75 38.75V43.75H56.25V38.75C56.2509 38.4347 56.1327 38.1307 55.919 37.8989C55.7053 37.6671 55.4118 37.5246 55.0975 37.5L57.5 34.5Z" fill="white"/>
<path d="M71.5237 26.7188L66.5237 32.9688C66.3765 33.1526 66.2843 33.3744 66.2576 33.6084C66.2309 33.8424 66.2708 34.0792 66.3729 34.2915C66.4749 34.5038 66.6348 34.6829 66.8343 34.8083C67.0337 34.9336 67.2644 35.0001 67.5 35H68.75V40C68.75 40.3315 68.8817 40.6495 69.1161 40.8839C69.3505 41.1183 69.6685 41.25 70 41.25H75C75.3315 41.25 75.6494 41.1183 75.8839 40.8839C76.1183 40.6495 76.25 40.3315 76.25 40V35H77.5C77.7355 35.0001 77.9663 34.9336 78.1657 34.8083C78.3651 34.6829 78.525 34.5038 78.6271 34.2915C78.7291 34.0792 78.7691 33.8424 78.7424 33.6084C78.7157 33.3744 78.6234 33.1526 78.4762 32.9688L73.4762 26.7188C73.3549 26.5789 73.2049 26.4668 73.0365 26.3899C72.8681 26.3131 72.6851 26.2733 72.5 26.2733C72.3148 26.2733 72.1319 26.3131 71.9634 26.3899C71.795 26.4668 71.6451 26.5789 71.5237 26.7188ZM73.75 33.75V38.75H71.25V33.75C71.2509 33.4347 71.1327 33.1307 70.919 32.8989C70.7053 32.6671 70.4118 32.5246 70.0975 32.5L72.5 29.5L74.9025 32.5C74.5881 32.5246 74.2947 32.6671 74.081 32.8989C73.8672 33.1307 73.749 33.4347 73.75 33.75Z" fill="white"/>
<path d="M82.5 30H83.75V35C83.75 35.3315 83.8817 35.6495 84.1161 35.8839C84.3505 36.1183 84.6685 36.25 85 36.25H90C90.3315 36.25 90.6494 36.1183 90.8839 35.8839C91.1183 35.6495 91.25 35.3315 91.25 35V30H92.5C92.7355 30.0001 92.9663 29.9336 93.1657 29.8083C93.3651 29.6829 93.525 29.5038 93.6271 29.2915C93.7291 29.0792 93.7691 28.8424 93.7424 28.6084C93.7157 28.3744 93.6234 28.1526 93.4762 27.9688L88.4762 21.7188C88.3549 21.5789 88.2049 21.4668 88.0365 21.3899C87.8681 21.3131 87.6851 21.2733 87.5 21.2733C87.3148 21.2733 87.1319 21.3131 86.9634 21.3899C86.795 21.4668 86.6451 21.5789 86.5237 21.7188L81.5237 27.9688C81.3765 28.1526 81.2843 28.3744 81.2576 28.6084C81.2309 28.8424 81.2708 29.0792 81.3729 29.2915C81.4749 29.5038 81.6348 29.6829 81.8343 29.8083C82.0337 29.9336 82.2644 30.0001 82.5 30ZM87.5 24.5L89.9025 27.5C89.5881 27.5246 89.2947 27.6671 89.081 27.8989C88.8672 28.1307 88.749 28.4347 88.75 28.75V33.75H86.25V28.75C86.2509 28.4347 86.1327 28.1307 85.919 27.8989C85.7053 27.6671 85.4118 27.5246 85.0975 27.5L87.5 24.5Z" fill="white"/>
<path d="M98.75 71.25H92.5V40C92.5 39.6685 92.3683 39.3505 92.1339 39.1161C91.8995 38.8817 91.5815 38.75 91.25 38.75H83.75C83.4185 38.75 83.1005 38.8817 82.8661 39.1161C82.6317 39.3505 82.5 39.6685 82.5 40V71.25H77.5V45C77.5 44.6685 77.3683 44.3505 77.1339 44.1161C76.8995 43.8817 76.5815 43.75 76.25 43.75H68.75C68.4185 43.75 68.1005 43.8817 67.8661 44.1161C67.6317 44.3505 67.5 44.6685 67.5 45V71.25H62.5V50C62.5 49.6685 62.3683 49.3505 62.1339 49.1161C61.8995 48.8817 61.5815 48.75 61.25 48.75H53.75C53.4185 48.75 53.1005 48.8817 52.8661 49.1161C52.6317 49.3505 52.5 49.6685 52.5 50V71.25H47.5V55C47.5 54.6685 47.3683 54.3505 47.1339 54.1161C46.8995 53.8817 46.5815 53.75 46.25 53.75H38.75C38.4185 53.75 38.1005 53.8817 37.8661 54.1161C37.6317 54.3505 37.5 54.6685 37.5 55V71.25H31.25C30.9185 71.25 30.6005 71.3817 30.3661 71.6161C30.1317 71.8505 30 72.1685 30 72.5V77.5C30 77.8315 30.1317 78.1495 30.3661 78.3839C30.6005 78.6183 30.9185 78.75 31.25 78.75H98.75C99.0815 78.75 99.3995 78.6183 99.6339 78.3839C99.8683 78.1495 100 77.8315 100 77.5V72.5C100 72.1685 99.8683 71.8505 99.6339 71.6161C99.3995 71.3817 99.0815 71.25 98.75 71.25ZM85 41.25H90V71.25H85V41.25ZM70 46.25H75V71.25H70V46.25ZM55 51.25H60V71.25H55V51.25ZM40 56.25H45V71.25H40V56.25ZM97.5 76.25H32.5V73.75H97.5V76.25Z" fill="white"/>
<path d="M65 16.25C64.6685 16.25 64.3505 16.1183 64.1161 15.8839C63.8817 15.6495 63.75 15.3315 63.75 15H61.25C61.2532 15.7728 61.4951 16.5258 61.9426 17.1559C62.3901 17.786 63.0214 18.2624 63.75 18.52V20H66.25V18.52C67.0834 18.2265 67.7859 17.6475 68.2333 16.8856C68.6807 16.1237 68.844 15.228 68.6942 14.3573C68.5445 13.4865 68.0915 12.6968 67.4153 12.1281C66.7391 11.5594 65.8835 11.2483 65 11.25C64.7528 11.25 64.5111 11.1767 64.3055 11.0393C64.1 10.902 63.9398 10.7068 63.8452 10.4784C63.7505 10.2499 63.7258 9.99861 63.774 9.75614C63.8222 9.51366 63.9413 9.29093 64.1161 9.11612C64.2909 8.9413 64.5137 8.82225 64.7561 8.77402C64.9986 8.72579 65.2499 8.75054 65.4784 8.84515C65.7068 8.93976 65.902 9.09998 66.0393 9.30554C66.1767 9.5111 66.25 9.75277 66.25 10H68.75C68.7468 9.22717 68.5049 8.47421 68.0574 7.84413C67.6099 7.21404 66.9786 6.7376 66.25 6.48V5H63.75V6.48C62.9166 6.77353 62.2141 7.35251 61.7667 8.11442C61.3193 8.87632 61.156 9.77197 61.3058 10.6427C61.4555 11.5135 61.9085 12.3032 62.5847 12.8719C63.2609 13.4406 64.1165 13.7517 65 13.75C65.3315 13.75 65.6495 13.8817 65.8839 14.1161C66.1183 14.3505 66.25 14.6685 66.25 15C66.25 15.3315 66.1183 15.6495 65.8839 15.8839C65.6495 16.1183 65.3315 16.25 65 16.25Z" fill="white"/>
<path d="M65 23.75C67.225 23.75 69.4001 23.0902 71.2502 21.854C73.1002 20.6179 74.5422 18.8609 75.3936 16.8052C76.2451 14.7495 76.4679 12.4875 76.0338 10.3052C75.5998 8.12295 74.5283 6.11839 72.955 4.54505C71.3816 2.97171 69.3771 1.90025 67.1948 1.46617C65.0125 1.03209 62.7505 1.25487 60.6948 2.10636C58.6391 2.95785 56.8821 4.39979 55.646 6.24984C54.4098 8.09989 53.75 10.275 53.75 12.5C53.7533 15.4827 54.9396 18.3422 57.0487 20.4513C59.1578 22.5604 62.0173 23.7467 65 23.75ZM65 3.75C66.7306 3.75 68.4223 4.26318 69.8612 5.22465C71.3002 6.18611 72.4217 7.55267 73.0839 9.15152C73.7462 10.7504 73.9195 12.5097 73.5819 14.207C73.2443 15.9044 72.4109 17.4635 71.1872 18.6872C69.9635 19.9109 68.4044 20.7443 66.707 21.0819C65.0097 21.4195 63.2504 21.2462 61.6515 20.584C60.0527 19.9217 58.6861 18.8002 57.7246 17.3612C56.7632 15.9223 56.25 14.2306 56.25 12.5C56.2526 10.1802 57.1754 7.95611 58.8157 6.31574C60.4561 4.67537 62.6802 3.75265 65 3.75Z" fill="white"/>
</svg>
