<svg width="105" height="80" viewBox="0 0 105 80" fill="none" xmlns="http://www.w3.org/2000/svg">
<rect y="10" width="60" height="60" rx="30" fill="#3BA1FF"/>
<g clip-path="url(#clip0_17_47)">
<path d="M80 43.3333C68.0534 43.3333 58.3334 33.6133 58.3334 21.6667C58.3334 9.72 68.0534 0 80 0C91.9467 0 101.667 9.72 101.667 21.6667C101.667 33.6133 91.9467 43.3333 80 43.3333ZM80 3.33333C69.89 3.33333 61.6667 11.56 61.6667 21.6667C61.6667 31.7733 69.89 40 80 40C90.11 40 98.3334 31.7733 98.3334 21.6667C98.3334 11.56 90.11 3.33333 80 3.33333Z" fill="white"/>
<path d="M86.6666 30C86.24 30 85.8133 29.8367 85.4866 29.5133L78.82 22.8467C78.51 22.5333 78.3333 22.11 78.3333 21.6667V11.6667C78.3333 10.7467 79.08 10 80 10C80.92 10 81.6666 10.7467 81.6666 11.6667V20.9767L87.8466 27.1567C88.4966 27.8067 88.4966 28.8633 87.8466 29.5133C87.52 29.8367 87.0933 30 86.6666 30Z" fill="white"/>
<path d="M36.6667 73.3333H26.6667C25.7467 73.3333 25 72.5867 25 71.6667V41.6667C25 40.7467 25.7467 40 26.6667 40C38.0033 40 43.9933 43.82 44.2433 43.9833C44.84 44.3733 45.1233 45.1 44.95 45.79L38.2833 72.0767C38.0933 72.8167 37.43 73.3333 36.6667 73.3333ZM28.3333 70H35.37L41.4 46.2333C39.5233 45.3367 35.1033 43.6133 28.3333 43.3633V70Z" fill="white"/>
<path d="M68.3333 80.0001C60.4667 80.0001 45.2566 73.3867 36.8866 69.4401C36.0533 69.05 35.7 68.0534 36.09 67.2234C36.48 66.3867 37.4766 66.0367 38.31 66.4267C44.8433 69.5067 60.8433 76.6667 68.3333 76.6667C76.44 76.6667 95.55 67.1434 101.047 64.3134C100.18 63.18 98.39 61.6667 95 61.6667C91.9233 61.6667 88.0233 62.8967 84.25 64.09C80.24 65.3534 76.09 66.6667 72.5 66.6667C65.62 66.6667 56.4833 63.3734 56.0967 63.2334C55.2333 62.92 54.7866 61.9634 55.1 61.0967C55.4166 60.23 56.37 59.7834 57.2366 60.1C57.3233 60.1334 66.21 63.3334 72.5 63.3334C75.5766 63.3334 79.4767 62.1034 83.25 60.91C87.26 59.6467 91.41 58.3334 95 58.3334C102.777 58.3334 104.83 64.2234 104.913 64.4734C105.17 65.2434 104.837 66.0867 104.117 66.4734C103.08 67.02 78.63 80.0001 68.3333 80.0001Z" fill="white"/>
<path d="M80.0001 65.3C79.0801 65.3 78.3334 64.5534 78.3334 63.6334V61.9667C78.3334 59.64 76.7667 57.6467 74.5201 57.1267L42.34 49.3567C41.4434 49.14 40.8934 48.24 41.11 47.3434C41.3267 46.4434 42.2434 45.9134 43.12 46.1134L75.2867 53.88C79.0401 54.7567 81.6667 58.0834 81.6667 61.9667V63.6334C81.6667 64.5534 80.9201 65.3 80.0001 65.3Z" fill="white"/>
</g>
<defs>
<clipPath id="clip0_17_47">
<rect width="80" height="80" fill="white" transform="translate(25)"/>
</clipPath>
</defs>
</svg>
