<svg width="18" height="24" viewBox="0 0 18 24" fill="none" xmlns="http://www.w3.org/2000/svg">
<path d="M8.99962 0C4.03715 0 0 4.14925 0 9.2494C0 12.8937 1.4847 16.58 4.2936 19.9099C6.39156 22.397 8.4707 23.8061 8.55826 23.8649C8.69229 23.955 8.84601 24 8.99973 24C9.15334 24 9.30706 23.955 9.4412 23.8649C9.52866 23.8061 11.6081 22.397 13.7061 19.91C16.5152 16.58 18 12.8937 18 9.2494C17.9999 4.14925 13.9623 0 8.99962 0ZM8.99962 22.1529C7.34443 20.8854 1.61357 16.0074 1.61357 9.2494C1.61357 5.06356 4.92687 1.65815 8.99962 1.65815C13.0727 1.65815 16.3863 5.06356 16.3863 9.2494C16.3863 16.0074 10.6549 20.8854 8.99962 22.1529Z" fill="white"/>
<path d="M9.00024 5.57715C7.03061 5.57715 5.42822 7.22381 5.42822 9.24795C5.42822 11.2715 7.03061 12.9179 9.00024 12.9179C10.9699 12.9179 12.5721 11.2715 12.5721 9.24795C12.5721 7.22392 10.9698 5.57715 9.00024 5.57715ZM9.00024 11.2598C7.92033 11.2598 7.04179 10.3573 7.04179 9.24795C7.04179 8.13805 7.92033 7.23519 9.00024 7.23519C10.08 7.23519 10.9586 8.13805 10.9586 9.24795C10.9586 10.3573 10.08 11.2598 9.00024 11.2598Z" fill="white"/>
</svg>
