<svg width="26" height="26" viewBox="0 0 26 26" fill="none" xmlns="http://www.w3.org/2000/svg">
<g clip-path="url(#clip0_17_135)">
<path d="M25.8341 21.5945L19.5586 15.319C19.4256 15.1861 19.231 15.1356 19.0501 15.1873L18.1155 15.4543C18.0639 15.4691 18.015 15.4917 17.9703 15.5215L17.0091 16.1629L15.5776 17.1182C12.7808 15.2554 10.3683 12.7892 8.56686 9.95239L9.61108 8.90818L10.4124 8.10685C10.4747 8.04459 10.52 7.9676 10.5441 7.883L10.8112 6.94837C10.8629 6.76754 10.8124 6.57295 10.6795 6.4399L4.40397 0.164354C4.26041 0.0207958 4.04621 -0.0256183 3.85594 0.0456786L2.7878 0.44619C2.71864 0.47214 2.65577 0.512612 2.60347 0.564866C2.36962 0.798714 2.14466 1.05049 1.93478 1.31323C-0.900285 4.86248 -0.612812 9.96437 2.60347 13.1806L12.8178 23.3949C14.553 25.13 16.8364 26.0128 19.1293 26.0126C21.0865 26.0125 23.0507 25.3692 24.6852 24.0636C24.9479 23.8538 25.1997 23.6288 25.4335 23.3949C25.4858 23.3426 25.5263 23.2798 25.5522 23.2106L25.9528 22.1425C26.0241 21.9523 25.9777 21.7381 25.8341 21.5945ZM3.25829 1.37584L3.90738 1.1324L9.73168 6.9567L9.58518 7.46934L9.24489 7.80968L3.04237 1.60715C3.11311 1.52829 3.18517 1.4511 3.25829 1.37584ZM13.5501 22.6626L3.33579 12.4483C0.63143 9.74388 0.269613 5.53132 2.3977 2.42712L8.51263 8.54204L7.54377 9.51085C7.37467 9.68 7.34339 9.94294 7.46811 10.147C9.43009 13.3576 12.1381 16.1334 15.2992 18.1741C15.4726 18.2861 15.6959 18.2843 15.8676 18.1698L17.2308 17.2601L23.5714 23.6008C20.4671 25.7288 16.2545 25.367 13.5501 22.6626ZM24.6226 22.7402C24.5474 22.8133 24.4702 22.8853 24.3914 22.956L18.1092 16.6739L18.4779 16.4279L19.0418 16.2668L24.866 22.0911L24.6226 22.7402Z" fill="white"/>
<path d="M14.6061 21.4783L10.7483 17.6204C10.5461 17.4182 10.2182 17.4182 10.0159 17.6204C9.81371 17.8226 9.81371 18.1505 10.0159 18.3528L13.8738 22.2107C13.975 22.3118 14.1075 22.3624 14.24 22.3624C14.3725 22.3624 14.5051 22.3118 14.6062 22.2107C14.8083 22.0085 14.8083 21.6806 14.6061 21.4783Z" fill="white"/>
<path d="M9.29646 16.1782L9.03758 15.9192C8.83537 15.717 8.50748 15.717 8.30522 15.9192C8.10301 16.1214 8.10301 16.4493 8.30522 16.6516L8.56415 16.9105C8.66531 17.0117 8.7978 17.0622 8.93028 17.0622C9.06277 17.0622 9.19536 17.0117 9.29646 16.9105C9.49867 16.7083 9.49867 16.3804 9.29646 16.1782Z" fill="white"/>
</g>
<defs>
<clipPath id="clip0_17_135">
<rect width="26" height="26" fill="white"/>
</clipPath>
</defs>
</svg>
