<svg width="24" height="25" viewBox="0 0 24 25" fill="none" xmlns="http://www.w3.org/2000/svg">
<g clip-path="url(#clip0_17_148)">
<path d="M22.7692 4.02539H1.2308C0.553828 4.02539 0 4.58269 0 5.26385V18.8872C0 19.5683 0.553828 20.1257 1.2308 20.1257H22.7692C23.4461 20.1257 24 19.5684 24 18.8872V5.26385C24 4.58269 23.4462 4.02539 22.7692 4.02539ZM22.3073 4.95419L12.708 12.1994C12.5354 12.3316 12.2705 12.4143 12 12.413C11.7295 12.4143 11.4646 12.3316 11.292 12.1994L1.69261 4.95419H22.3073ZM17.1797 12.6775L22.4105 19.1795C22.4157 19.186 22.4221 19.191 22.4277 19.1969H1.57228C1.57781 19.1907 1.58428 19.186 1.58953 19.1795L6.82031 12.6775C6.98058 12.4781 6.9502 12.1858 6.75169 12.0241C6.55355 11.8629 6.26306 11.8934 6.10275 12.0928L0.923062 18.5314V5.53474L10.7384 12.9424C11.1074 13.2189 11.5562 13.3406 11.9999 13.3418C12.443 13.3409 12.8922 13.2192 13.2614 12.9424L23.0767 5.53474V18.5313L17.8972 12.0928C17.7369 11.8935 17.4461 11.8628 17.2483 12.0241C17.0498 12.1854 17.0193 12.4781 17.1797 12.6775Z" fill="white"/>
</g>
<defs>
<clipPath id="clip0_17_148">
<rect width="24" height="24.1504" fill="white"/>
</clipPath>
</defs>
</svg>
