<svg width="60" height="61" viewBox="0 0 60 61" fill="none" xmlns="http://www.w3.org/2000/svg">
<g clip-path="url(#clip0_17_284)">
<path d="M56.0001 12.3928C53.7941 12.3928 52.0002 14.1868 52.0002 16.3928C52.0002 18.5987 53.7942 20.3928 56.0001 20.3928C58.2061 20.3928 60.0001 18.5988 60.0001 16.3928C60.0001 14.1868 58.2061 12.3928 56.0001 12.3928ZM56.0001 18.3928C54.8972 18.3928 54.0001 17.4959 54.0001 16.3928C54.0001 15.2898 54.8971 14.3927 56.0001 14.3927C57.1032 14.3927 58.0002 15.2897 58.0002 16.3928C58.0001 17.4959 57.1031 18.3928 56.0001 18.3928Z" fill="#FFBF1B"/>
<path d="M3.99996 45.3928C1.79402 45.3928 0 47.1868 0 49.3928C0 51.5987 1.79402 53.3927 3.99996 53.3927C6.20602 53.3927 7.99992 51.5987 7.99992 49.3928C7.99992 47.1868 6.20602 45.3928 3.99996 45.3928ZM3.99996 51.3928C2.89699 51.3928 1.99992 50.4959 1.99992 49.3928C1.99992 48.2897 2.89687 47.3927 3.99996 47.3927C5.10293 47.3927 6 48.2897 6 49.3928C6 50.4959 5.10305 51.3928 3.99996 51.3928Z" fill="#FFBF1B"/>
<path d="M54.0612 13.6568L45.4342 9.49185C44.9362 9.25079 44.3392 9.46079 44.0992 9.9579C43.8592 10.4549 44.0682 11.0529 44.5653 11.2929L53.1923 15.4579C53.3323 15.5258 53.4803 15.5578 53.6262 15.5578C53.9982 15.5578 54.3552 15.3498 54.5272 14.9918C54.7672 14.4948 54.5582 13.8968 54.0612 13.6568Z" fill="#FFBF1B"/>
<path d="M44.9999 52.3928C42.7938 52.3928 40.9999 54.1869 40.9999 56.3928C40.9999 58.5987 42.7938 60.3929 44.9999 60.3929C47.206 60.3929 48.9999 58.5989 48.9999 56.3929C48.9999 54.187 47.206 52.3928 44.9999 52.3928ZM44.9999 58.3928C43.8969 58.3928 42.9999 57.4959 42.9999 56.3928C42.9999 55.2897 43.8969 54.3929 44.9999 54.3929C46.1029 54.3929 46.9999 55.2898 46.9999 56.3929C46.9999 57.496 46.1029 58.3928 44.9999 58.3928Z" fill="#FFBF1B"/>
<path d="M43.061 53.657L34.434 49.492C33.9359 49.251 33.339 49.46 33.099 49.9581C32.859 50.4551 33.0679 51.0531 33.565 51.2931L42.192 55.458C42.3321 55.526 42.4801 55.558 42.626 55.558C42.9979 55.558 43.355 55.35 43.527 54.992C43.7669 54.4949 43.558 53.897 43.061 53.657Z" fill="#FFBF1B"/>
<path d="M29.9999 27.3928C27.7938 27.3928 25.9999 29.1868 25.9999 31.3928C25.9999 33.5988 27.794 35.3927 29.9999 35.3927C32.206 35.3927 33.9999 33.5987 33.9999 31.3928C33.9999 29.1868 32.206 27.3928 29.9999 27.3928ZM29.9999 33.3928C28.8969 33.3928 27.9999 32.4959 27.9999 31.3928C27.9999 30.2898 28.8968 29.3927 29.9999 29.3927C31.1029 29.3927 31.9999 30.2897 31.9999 31.3928C31.9999 32.4959 31.1029 33.3928 29.9999 33.3928Z" fill="#FFBF1B"/>
<path d="M28.242 28.7687L21.615 23.6037C21.179 23.2667 20.5511 23.3417 20.211 23.7777C19.872 24.2138 19.949 24.8417 20.385 25.1817L27.012 30.3468C27.195 30.4888 27.411 30.5578 27.626 30.5578C27.924 30.5578 28.2181 30.4259 28.416 30.1729C28.755 29.7367 28.678 29.1087 28.242 28.7687Z" fill="#FFBF1B"/>
<path d="M48 26.3928C41.935 26.3928 37 31.3278 37 37.3929C37 43.4579 41.935 48.3929 48 48.3929C54.0651 48.3929 59.0001 43.4579 59.0001 37.3929C59.0001 31.3278 54.0651 26.3928 48 26.3928ZM48 46.3927C43.037 46.3927 39 42.3558 39 37.3927C39 32.4297 43.037 28.3927 48 28.3927C52.963 28.3927 57 32.4297 57 37.3927C57 42.3558 52.963 46.3927 48 46.3927Z" fill="#FFBF1B"/>
<path d="M48.0001 30.3928C45.7941 30.3928 44.0002 32.1868 44.0002 34.3928C44.0002 36.5988 45.7942 38.3927 48.0001 38.3927C50.2062 38.3927 52.0001 36.5987 52.0001 34.3928C52.0001 32.1868 50.2062 30.3928 48.0001 30.3928ZM48.0001 36.3928C46.8971 36.3928 46.0001 35.4959 46.0001 34.3928C46.0001 33.2898 46.897 32.3927 48.0001 32.3927C49.1031 32.3927 50.0002 33.2897 50.0002 34.3928C50.0002 35.4959 49.1031 36.3928 48.0001 36.3928Z" fill="#FFBF1B"/>
<path d="M50.901 40.3928H45.0991C43.3901 40.3928 42.0001 41.7459 42.0001 43.4078V46.0438C42.0001 46.4008 42.19 46.7308 42.499 46.9098C44.1751 47.8798 46.077 48.3929 48.0001 48.3929C49.9231 48.3929 51.8251 47.8798 53.5011 46.9098C53.8101 46.7318 54.0001 46.4008 54.0001 46.0449V43.4089C54.0001 41.7459 52.6101 40.3928 50.901 40.3928ZM52 45.4478C49.5111 46.6878 46.489 46.6878 44 45.4478V43.4089C44 42.8488 44.493 42.3929 45.099 42.3929H50.9009C51.5069 42.3929 51.9999 42.8488 51.9999 43.4089V45.4478H52Z" fill="#FFBF1B"/>
<path d="M24 38.3928C17.9349 38.3928 12.9999 43.3278 12.9999 49.3929C12.9999 55.4579 17.9349 60.3928 24 60.3928C30.065 60.3928 35 55.4578 35 49.3927C35 43.3277 30.065 38.3928 24 38.3928ZM24 58.3927C19.037 58.3927 15 54.3558 15 49.3927C15 44.4297 19.037 40.3927 24 40.3927C28.963 40.3927 33 44.4297 33 49.3927C33 54.3558 28.963 58.3927 24 58.3927Z" fill="#FFBF1B"/>
<path d="M24.0001 42.3928C21.794 42.3928 20.0001 44.1868 20.0001 46.3928C20.0001 48.5988 21.7941 50.3927 24.0001 50.3927C26.206 50.3927 28 48.5987 28 46.3928C28 44.1868 26.2061 42.3928 24.0001 42.3928ZM24.0001 48.3928C22.8971 48.3928 22 47.4959 22 46.3928C22 45.2898 22.897 44.3927 24.0001 44.3927C25.1031 44.3927 26.0001 45.2897 26.0001 46.3928C26.0001 47.4959 25.1031 48.3928 24.0001 48.3928Z" fill="#FFBF1B"/>
<path d="M26.9009 52.3928H21.099C19.39 52.3928 17.9999 53.7459 17.9999 55.4078V58.0439C17.9999 58.4008 18.1899 58.7308 18.4989 58.9099C20.1749 59.8798 22.0769 60.3929 23.9999 60.3929C25.923 60.3929 27.8249 59.8798 29.501 58.9099C29.81 58.7319 29.9999 58.4009 29.9999 58.0449V55.4089C29.9999 53.7459 28.61 52.3928 26.9009 52.3928ZM27.9999 57.4478C25.5108 58.6878 22.4889 58.6878 19.9999 57.4478V55.4089C19.9999 54.8488 20.4929 54.3929 21.0988 54.3929H26.9008C27.5068 54.3929 27.9998 54.8488 27.9998 55.4089V57.4478H27.9999Z" fill="#FFBF1B"/>
<path d="M11 13.3928C4.935 13.3928 0 18.3278 0 24.3929C0 30.4579 4.935 35.3929 11 35.3929C17.0651 35.3929 22.0001 30.4579 22.0001 24.3929C22 18.3278 17.065 13.3928 11 13.3928ZM11 33.3929C6.03703 33.3929 2.00004 29.3559 2.00004 24.3929C2.00004 19.4299 6.03703 15.3929 11 15.3929C15.963 15.3929 20 19.4299 20 24.3929C20 29.3559 15.963 33.3929 11 33.3929Z" fill="#FFBF1B"/>
<path d="M11.0001 17.3928C8.79406 17.3928 7.00015 19.1868 7.00015 21.3928C7.00015 23.5987 8.79418 25.3927 11.0001 25.3927C13.2062 25.3927 15.0001 23.5987 15.0001 21.3928C15.0001 19.1868 13.2061 17.3928 11.0001 17.3928ZM11.0001 23.3928C9.89714 23.3928 9.00007 22.4959 9.00007 21.3928C9.00007 20.2897 9.89703 19.3927 11.0001 19.3927C12.1031 19.3927 13.0002 20.2897 13.0002 21.3928C13.0002 22.4959 12.1031 23.3928 11.0001 23.3928Z" fill="#FFBF1B"/>
<path d="M13.9011 27.3928H8.09912C6.39017 27.3928 5.00009 28.7459 5.00009 30.4078V33.0438C5.00009 33.4008 5.19005 33.7308 5.49908 33.9099C7.17509 34.8798 9.07705 35.3929 11.0001 35.3929C12.9231 35.3929 14.8251 34.8798 16.5011 33.9099C16.8101 33.7318 17.0001 33.4008 17.0001 33.0449V30.4089C17.0001 28.7459 15.61 27.3928 13.9011 27.3928ZM15.0001 32.4478C12.5111 33.6878 9.48908 33.6878 7.00001 32.4478V30.4089C7.00001 29.8488 7.49302 29.3929 8.099 29.3929H13.901C14.5069 29.3929 14.9999 29.8488 14.9999 30.4089V32.4478H15.0001Z" fill="#FFBF1B"/>
<path d="M35.0002 0.392822C28.9352 0.392822 24.0002 5.32782 24.0002 11.3929C24.0002 17.4579 28.9352 22.3929 35.0002 22.3929C41.0653 22.3929 46.0003 17.4579 46.0003 11.3929C46.0001 5.32782 41.0651 0.392822 35.0002 0.392822ZM35.0002 20.3929C30.0372 20.3929 26.0002 16.3559 26.0002 11.3929C26.0002 6.42985 30.0372 2.39286 35.0002 2.39286C39.9632 2.39286 44.0002 6.42985 44.0002 11.3929C44.0002 16.3559 39.9632 20.3929 35.0002 20.3929Z" fill="#FFBF1B"/>
<path d="M34.9999 4.39282C32.7938 4.39282 30.9999 6.18685 30.9999 8.39278C30.9999 10.5987 32.7939 12.3927 34.9999 12.3927C37.2058 12.3927 38.9998 10.5988 38.9998 8.3929C38.9998 6.18696 37.2058 4.39282 34.9999 4.39282ZM34.9999 10.3928C33.8969 10.3928 32.9998 9.49587 32.9998 8.39278C32.9998 7.28981 33.8968 6.39274 34.9999 6.39274C36.103 6.39274 36.9999 7.2897 36.9999 8.39278C36.9998 9.49587 36.1028 10.3928 34.9999 10.3928Z" fill="#FFBF1B"/>
<path d="M37.9011 14.3928H32.0991C30.3902 14.3928 29.0001 15.7459 29.0001 17.4078V20.0438C29.0001 20.4008 29.1901 20.7308 29.4991 20.9098C31.1751 21.8798 33.0771 22.3929 35.0001 22.3929C36.9232 22.3929 38.8251 21.8798 40.5011 20.9098C40.8102 20.7318 41.0001 20.4008 41.0001 20.0449V17.4089C41.0001 15.7457 39.61 14.3928 37.9011 14.3928ZM39.0001 19.4478C36.5111 20.6878 33.4891 20.6878 31 19.4478V17.4089C31 16.8488 31.4931 16.3929 32.099 16.3929H37.901C38.507 16.3929 39 16.8488 39 17.4089V19.4478H39.0001Z" fill="#FFBF1B"/>
<path d="M25.761 10.7418C25.402 10.3238 24.771 10.2737 24.351 10.6328L17.421 16.5628C17.001 16.9218 16.952 17.5528 17.3109 17.9728C17.509 18.2038 17.7889 18.3229 18.0709 18.3229C18.3009 18.3229 18.5319 18.2439 18.7209 18.0818L25.6509 12.1518C26.071 11.7928 26.12 11.1618 25.761 10.7418Z" fill="#FFBF1B"/>
<path d="M47.7999 26.7939L41.7999 18.7939C41.4689 18.3509 40.8419 18.2638 40.3999 18.5938C39.9579 18.9249 39.8689 19.5518 40.1999 19.9928L46.1999 27.9929C46.3969 28.2549 46.6968 28.3928 47.0008 28.3928C47.2088 28.3928 47.4199 28.3278 47.5999 28.1928C48.0419 27.8618 48.131 27.2349 47.7999 26.7939Z" fill="#FFBF1B"/>
<path d="M39.5929 40.6998C39.2619 40.2577 38.6349 40.1688 38.1929 40.4997L32.6069 44.6887C32.1649 45.0198 32.076 45.6467 32.4069 46.0877C32.6039 46.3497 32.9039 46.4877 33.2079 46.4877C33.4168 46.4877 33.6268 46.4217 33.8069 46.2876L39.3929 42.0986C39.8349 41.7678 39.924 41.1407 39.5929 40.6998Z" fill="#FFBF1B"/>
<path d="M13.9999 48.3928H6.99981C6.44786 48.3928 5.99985 48.8398 5.99985 49.3928C5.99985 49.9458 6.44786 50.3927 6.99981 50.3927H13.9998C14.5517 50.3927 14.9997 49.9458 14.9997 49.3928C14.9997 48.8398 14.5518 48.3928 13.9999 48.3928Z" fill="#FFBF1B"/>
<path d="M11.0001 0.392822C8.79402 0.392822 7 2.18685 7 4.39278C7 6.59884 8.79402 8.39274 11 8.39274C13.206 8.39274 14.9999 6.59872 14.9999 4.39278C15 2.18685 13.206 0.392822 11.0001 0.392822ZM11.0001 6.39282C9.89711 6.39282 9.00004 5.49587 9.00004 4.39278C9.00004 3.28981 9.89699 2.39274 11.0001 2.39274C12.103 2.39274 13.0001 3.2897 13.0001 4.39278C13 5.49587 12.103 6.39282 11.0001 6.39282Z" fill="#FFBF1B"/>
<path d="M11 6.39282C10.4481 6.39282 10.0001 6.83978 10.0001 7.39278V14.3927C10.0001 14.9458 10.4481 15.3927 11 15.3927C11.552 15.3927 12 14.9458 12 14.3927V7.39278C12 6.83978 11.552 6.39282 11 6.39282Z" fill="#FFBF1B"/>
</g>
<defs>
<clipPath id="clip0_17_284">
<rect width="60" height="60" fill="white" transform="translate(0 0.392822)"/>
</clipPath>
</defs>
</svg>
