<svg width="100" height="100" viewBox="0 0 100 100" fill="none" xmlns="http://www.w3.org/2000/svg">
<circle cx="30" cy="70" r="30" fill="#FFBF1B"/>
<g clip-path="url(#clip0_17_198)">
<path d="M99.1172 12.6092C97.9344 11.4234 96.0181 11.4203 94.8313 12.6011L71.8222 35.5171L65.1727 28.8676C63.9888 27.6848 62.0718 27.6837 60.8879 28.8676L33.9183 55.8374C32.7344 57.0202 32.7344 58.9394 33.9183 60.1222C34.5092 60.7141 35.285 61.01 36.0608 61.01C36.8354 61.01 37.6123 60.7141 38.2031 60.1222L63.0304 35.296L69.6758 41.9404C70.8587 43.1232 72.7708 43.1243 73.9566 41.9454L99.1081 16.895C100.294 15.7142 100.298 13.795 99.1172 12.6092Z" fill="#3BA1FF"/>
<path d="M96.8686 70.3029H26.0606V6.66666C26.0606 4.99291 24.7041 3.63635 23.0303 3.63635C21.3566 3.63635 20 4.99291 20 6.66666V73.3333C20 75.007 21.3566 76.3636 23.0303 76.3636H96.8686C98.5424 76.3636 99.8989 75.007 99.8989 73.3333C99.8989 71.6595 98.5424 70.3029 96.8686 70.3029Z" fill="#3BA1FF"/>
<path d="M96.9697 11.6162H74.2426C72.5688 11.6162 71.2122 12.9728 71.2122 14.6465C71.2122 16.3203 72.5688 17.6768 74.2426 17.6768H93.9395V37.3748C93.9395 39.0474 95.2961 40.4051 96.9699 40.4051C98.6436 40.4051 100 39.0474 100 37.3737V14.6465C100 12.9728 98.6434 11.6162 96.9697 11.6162Z" fill="#3BA1FF"/>
</g>
<defs>
<clipPath id="clip0_17_198">
<rect width="80" height="80" fill="white" transform="translate(20)"/>
</clipPath>
</defs>
</svg>
