<svg width="60" height="61" viewBox="0 0 60 61" fill="none" xmlns="http://www.w3.org/2000/svg">
<g clip-path="url(#clip0_17_236)">
<path d="M59.9996 44.1364C59.9996 43.651 59.6061 43.2575 59.1207 43.2575H55.6296C56.7287 42.3772 57.594 41.21 58.1185 39.8472L59.941 35.112C60.1154 34.659 59.8894 34.1504 59.4364 33.9761C58.9836 33.8019 58.4748 34.0276 58.3005 34.4807L56.478 39.2159C55.7051 41.2241 53.987 42.6895 51.882 43.1359C49.8149 43.5748 47.585 42.9135 46.0905 41.419L32.8686 28.1969L38.0402 23.0253L42.4842 27.4692C42.8274 27.8125 43.3839 27.8125 43.7271 27.4692C44.0703 27.126 44.0703 26.5695 43.7271 26.2263L38.6616 21.1608C38.1665 20.6657 37.4997 20.978 37.148 21.4314L35.913 20.2097L37.102 19.0207C38.2849 17.8378 38.2876 15.8297 37.102 14.644L34.081 11.6229C32.9679 10.5097 31.2113 10.4243 29.9983 11.365C28.7911 10.4279 26.9895 10.5416 25.9056 11.6257L22.8975 14.6337C21.711 15.8202 21.7083 17.8341 22.8975 19.0233C23.2616 19.414 23.6786 19.8678 24.1191 20.1749L22.9374 21.3439C22.5858 20.8907 21.9192 20.579 21.4245 21.0739L10.474 32.0244L1.69928 9.22503C1.52502 8.77198 1.01643 8.54628 0.563388 8.72042C0.110345 8.8948 -0.115473 9.40339 0.058783 9.85631L9.10992 33.3732L7.34732 35.1358C7.00408 35.479 7.00408 36.0354 7.34732 36.3787C7.76157 36.7219 8.17595 36.7219 8.5902 36.3787L22.0463 22.9384L27.2179 28.1101L13.9092 41.4189C12.4142 42.9137 10.1852 43.5744 8.1177 43.1358C6.0128 42.6893 4.29461 41.2239 3.52165 39.2158L1.69916 34.4806C1.5249 34.0276 1.01631 33.8017 0.563271 33.976C0.110228 34.1504 -0.115591 34.659 0.0586658 35.1119L1.88115 39.8471C2.40568 41.2099 3.27098 42.3771 4.37008 43.2574H0.878972C0.393585 43.2574 7.25568e-05 43.6509 7.25568e-05 44.1363V59.9706C0.0383926 61.1297 1.7165 61.1376 1.75787 59.9706V50.0382H4.42187V59.9706C4.42187 60.456 4.81539 60.8495 5.30077 60.8495C5.78616 60.8495 6.17967 60.456 6.17967 59.9706V50.0382H9.65578C10.1412 50.0382 10.5347 49.6447 10.5347 49.1593C10.5347 48.6739 10.1412 48.2804 9.65578 48.2804H1.75787V45.0152H58.2418V48.2804H14.343C13.8576 48.2804 13.4641 48.6739 13.4641 49.1593C13.4641 49.6447 13.8576 50.0382 14.343 50.0382H53.82V59.9706C53.82 60.456 54.2135 60.8495 54.6989 60.8495C55.1843 60.8495 55.5778 60.456 55.5778 59.9706V50.0382H58.2418V59.9706C58.2418 60.456 58.6353 60.8495 59.1207 60.8495C59.6061 60.8495 59.9996 60.456 59.9996 59.9706V44.1364ZM35.9052 22.6744L32.4699 26.1097L31.2415 24.8814L34.6702 21.4527L35.9052 22.6744ZM24.1406 15.8767L27.1487 12.8687C27.6675 12.35 28.5337 12.35 29.0525 12.8687L29.8489 13.6651C30.3738 14.19 30.3738 15.044 29.8489 15.5689L26.841 18.577C26.3161 19.1019 25.462 19.1019 24.9371 18.577L24.1407 17.7806C23.6157 17.2556 23.6157 16.4015 24.1406 15.8767ZM26.0641 20.7237C26.8274 20.6815 27.539 20.3647 28.0838 19.8199L31.0918 16.8118C32.2058 15.6978 32.2908 13.832 31.2767 12.6247C31.7752 12.3652 32.4429 12.4706 32.8382 12.8659L35.8593 15.887C36.375 16.4027 36.375 17.262 35.8593 17.7778L27.6153 26.0217L24.1805 22.5869L26.0641 20.7237ZM14.4852 43.2575C14.7162 43.0721 14.9395 42.8745 15.1521 42.6619L29.0824 28.7316C29.5578 28.2561 29.2926 27.617 28.8584 27.2646L29.9987 26.1244L31.227 27.3527C30.7933 27.7051 30.5293 28.3435 31.0042 28.8185L44.8476 42.6619C45.0602 42.8745 45.2834 43.0721 45.5145 43.2575H14.4852Z" fill="#FFBF1B"/>
<path d="M45.6196 29.3616C45.2764 29.7048 45.2764 30.2613 45.6196 30.6044L51.3936 36.3785C51.8079 36.7217 52.2223 36.7217 52.6365 36.3785C52.9798 36.0352 52.9798 35.4787 52.6365 35.1356L50.8853 33.3843L59.941 9.85633C60.1154 9.40328 59.8894 8.89469 59.4364 8.72044C58.9836 8.5463 58.4749 8.77188 58.3005 9.22504L49.5254 32.0244L46.8626 29.3616C46.5194 29.0183 45.9629 29.0183 45.6196 29.3616Z" fill="#FFBF1B"/>
<path d="M20.6249 26.718C19.4938 26.718 19.4919 28.4758 20.6249 28.4758C21.756 28.4758 21.7579 26.718 20.6249 26.718Z" fill="#FFBF1B"/>
<path d="M39.1991 28.4758C40.3302 28.4758 40.332 26.718 39.1991 26.718C38.068 26.718 38.0661 28.4758 39.1991 28.4758Z" fill="#FFBF1B"/>
<path d="M30.0024 4.58245C30.4878 4.58245 30.8813 4.18894 30.8813 3.70354V1.72894C30.841 0.565147 29.1634 0.566084 29.1235 1.72894V3.70366C29.1235 4.18894 29.5169 4.58245 30.0024 4.58245Z" fill="#FFBF1B"/>
<path d="M21.145 6.33212C21.3763 6.73278 21.9453 6.88501 22.3456 6.6538C22.7659 6.4111 22.91 5.87356 22.6673 5.45321L21.68 3.74309C21.4373 3.32274 20.8997 3.1786 20.4794 3.42141C20.059 3.66411 19.915 4.20165 20.1577 4.622L21.145 6.33212Z" fill="#FFBF1B"/>
<path d="M13.8395 11.6102L15.5497 12.5975C15.9501 12.8287 16.5189 12.6765 16.7502 12.2758C16.9929 11.8555 16.8489 11.3179 16.4286 11.0752L14.7184 10.0879C14.2981 9.84511 13.7606 9.98925 13.5179 10.4096C13.2752 10.8299 13.4192 11.3675 13.8395 11.6102Z" fill="#FFBF1B"/>
<path d="M11.8622 20.8213H13.8369C15.0007 20.781 14.9997 19.1034 13.8369 19.0635H11.8622C10.6984 19.1038 10.6992 20.7813 11.8622 20.8213Z" fill="#FFBF1B"/>
<path d="M45.3621 19.8691C45.3621 20.3545 45.7556 20.748 46.241 20.748H48.2157C49.3795 20.7077 49.3786 19.0302 48.2157 18.9902H46.241C45.7556 18.9902 45.3621 19.3836 45.3621 19.8691Z" fill="#FFBF1B"/>
<path d="M44.0529 12.6521C44.202 12.6521 44.3532 12.6141 44.4915 12.5342L46.2017 11.5469C46.622 11.3042 46.766 10.7667 46.5233 10.3463C46.2806 9.92596 45.7431 9.78194 45.3228 10.0246L43.6126 11.0119C42.8264 11.4658 43.2051 12.6521 44.0529 12.6521Z" fill="#FFBF1B"/>
<path d="M37.6688 6.61696C38.0691 6.84817 38.6381 6.69594 38.8694 6.29528L39.8567 4.58516C40.0994 4.16481 39.9554 3.62727 39.535 3.38457C39.1147 3.14176 38.5771 3.28579 38.3344 3.70625L37.3471 5.41637C37.1044 5.83672 37.2485 6.37426 37.6688 6.61696Z" fill="#FFBF1B"/>
</g>
<defs>
<clipPath id="clip0_17_236">
<rect width="60" height="60" fill="white" transform="translate(0 0.853027)"/>
</clipPath>
</defs>
</svg>
