<svg width="60" height="61" viewBox="0 0 60 61" fill="none" xmlns="http://www.w3.org/2000/svg">
<g clip-path="url(#clip0_17_276)">
<path d="M30.0811 14.2197C30.0596 14.2186 30.0364 14.2176 30.0134 14.2157C28.0096 14.042 26.622 13.3962 25.5094 12.1168L25.4893 12.0929C25.2889 11.8518 25.0391 11.7309 24.7585 11.7334C24.4741 11.736 24.2308 11.8611 24.0351 12.1052L24.0173 12.1271C22.9101 13.398 21.5223 14.0421 19.5208 14.2156C19.4958 14.2178 19.4726 14.2188 19.4511 14.2198C18.49 14.2681 18.3503 14.9895 18.335 15.2963C18.0814 20.2203 19.9521 23.8218 24.226 26.6331C24.3947 26.7508 24.5798 26.8096 24.7653 26.8096C24.9516 26.8096 25.1385 26.7501 25.3096 26.6309C29.5795 23.8266 31.4515 20.2252 31.2003 15.2866C31.1809 14.9816 31.0336 14.2676 30.0811 14.2197ZM24.7662 24.8754C21.4751 22.5702 20.0091 19.7767 20.0719 15.9257C22.0149 15.6944 23.5326 15.0346 24.7676 13.8784C26.0029 15.0348 27.52 15.6948 29.4631 15.9261C29.5238 19.7777 28.0579 22.5713 24.7662 24.8754Z" fill="#FFBF1B"/>
<path d="M43.5017 11.8127H35.8899C35.4044 11.8127 35.011 12.2061 35.011 12.6917C35.011 13.1772 35.4044 13.5706 35.8899 13.5706H43.5017C43.9872 13.5706 44.3806 13.1772 44.3806 12.6917C44.3806 12.2061 43.9871 11.8127 43.5017 11.8127Z" fill="#FFBF1B"/>
<path d="M43.5017 16.0779H35.8899C35.4044 16.0779 35.011 16.4713 35.011 16.9568C35.011 17.4423 35.4044 17.8357 35.8899 17.8357H43.5017C43.9872 17.8357 44.3806 17.4423 44.3806 16.9568C44.3806 16.4713 43.9871 16.0779 43.5017 16.0779Z" fill="#FFBF1B"/>
<path d="M43.5017 20.343H35.8899C35.4044 20.343 35.011 20.7364 35.011 21.2219C35.011 21.7074 35.4044 22.1008 35.8899 22.1008H43.5017C43.9872 22.1008 44.3806 21.7074 44.3806 21.2219C44.3806 20.7364 43.9871 20.343 43.5017 20.343Z" fill="#FFBF1B"/>
<path d="M51.6628 26.1123L50.1265 26.1147V7.59177C50.1265 6.51083 49.2455 5.63134 48.1625 5.63134H47.7402V2.53571C47.7402 1.35411 46.7773 0.392822 45.5937 0.392822H9.5052C8.3216 0.392822 7.35879 1.35411 7.35879 2.53571V33.3313C5.69227 33.5262 4.39453 34.9459 4.39453 36.6639V53.6806C4.39453 55.5313 5.90027 57.0369 7.75102 57.0369H14.9538C15.4392 57.0369 15.8327 56.6435 15.8327 56.158C15.8327 55.6725 15.4392 55.2791 14.9538 55.2791H7.75102C6.86953 55.2791 6.15234 54.562 6.15234 53.6806V36.6639C6.15234 35.7825 6.86953 35.0654 7.75102 35.0654H29.0215C30.8299 35.0654 33.0764 35.0653 33.5182 32.47L34.6423 29.0747C35.0305 27.8975 35.4773 27.8959 36.094 27.8938L51.6643 27.8701C52.8682 27.8701 53.8478 28.8493 53.8478 30.0532V53.6806C53.8478 54.5619 53.1307 55.2791 52.2491 55.2791H50.6538V46.4244C50.6538 44.6017 49.1709 43.1189 47.3481 43.1189H47.1656V40.8073C47.1656 38.5616 45.34 36.7345 43.0959 36.7345H38.0156C35.7698 36.7345 33.9427 38.5616 33.9427 40.8073V43.1189H33.7602C31.9373 43.1189 30.4545 44.6017 30.4545 46.4244V55.2791H19.5404C19.055 55.2791 18.6615 55.6725 18.6615 56.158C18.6615 56.6435 19.055 57.0369 19.5404 57.0369H30.4545V57.0874C30.4545 58.9102 31.9373 60.3929 33.7602 60.3929H47.3479C49.1707 60.3929 50.6536 58.9102 50.6536 57.0874V57.0369H52.2489C54.0996 57.0369 55.6053 55.5313 55.6053 53.6806V30.0532C55.6055 27.8802 53.8375 26.1123 51.6628 26.1123ZM36.0894 26.136C34.9365 26.1401 33.6647 26.427 32.9732 28.5231L31.8274 31.9839C31.812 32.0304 31.8006 32.0783 31.7931 32.1267C31.6389 33.131 31.2244 33.3076 29.0215 33.3076H14.5923V7.59177C14.5923 7.48196 14.6866 7.38915 14.7984 7.38915H23.6439C24.1293 7.38915 24.5228 6.99575 24.5228 6.51024C24.5228 6.02474 24.1293 5.63134 23.6439 5.63134H14.7984C13.7155 5.63134 12.8345 6.51083 12.8345 7.59177V33.3076H9.1166V2.53571C9.1166 2.327 9.29461 2.15063 9.5052 2.15063H45.5937C45.8044 2.15063 45.9823 2.327 45.9823 2.53571V5.63134H27.7743C27.2889 5.63134 26.8954 6.02474 26.8954 6.51024C26.8954 6.99575 27.2889 7.38915 27.7743 7.38915H48.1625C48.2742 7.38915 48.3687 7.48196 48.3687 7.59177V26.1174L36.0894 26.136ZM35.7006 40.8073C35.7006 39.5308 36.7391 38.4924 38.0157 38.4924H43.0961C44.3708 38.4924 45.4079 39.5308 45.4079 40.8073V43.1189H35.7007V40.8073H35.7006ZM48.8959 57.0873C48.8959 57.9407 48.2014 58.635 47.348 58.635H33.7603C32.9068 58.635 32.2124 57.9407 32.2124 57.0873V46.4244C32.2124 45.5711 32.9068 44.8767 33.7603 44.8767H47.348C48.2014 44.8767 48.8959 45.5711 48.8959 46.4244V57.0873Z" fill="#FFBF1B"/>
<path d="M40.5542 48.033C38.8935 48.033 37.5426 49.3854 37.5426 51.0478C37.5426 52.4028 38.4421 53.5512 39.6753 53.9282V55.7794C39.6753 56.2649 40.0687 56.6583 40.5542 56.6583C41.0397 56.6583 41.4331 56.2649 41.4331 55.7794V53.9282C42.6663 53.5512 43.5659 52.4028 43.5659 51.0478C43.5659 49.3854 42.2147 48.033 40.5542 48.033ZM40.5542 52.3015C39.8629 52.3015 39.3004 51.7391 39.3004 51.0478C39.3004 50.3547 39.8629 49.7908 40.5542 49.7908C41.2456 49.7908 41.8081 50.3547 41.8081 51.0478C41.8081 51.7391 41.2456 52.3015 40.5542 52.3015Z" fill="#FFBF1B"/>
</g>
<defs>
<clipPath id="clip0_17_276">
<rect width="60" height="60" fill="white" transform="translate(0 0.392822)"/>
</clipPath>
</defs>
</svg>
