<svg width="60" height="61" viewBox="0 0 60 61" fill="none" xmlns="http://www.w3.org/2000/svg">
<g clip-path="url(#clip0_17_271)">
<path d="M54.0562 16.6287C54.1364 16.6457 54.2174 16.6539 54.2978 16.6539C54.6053 16.6539 54.9043 16.5327 55.1264 16.3107L58.6872 12.7499C60.4377 10.9994 60.4377 8.15116 58.6872 6.40081C57.8394 5.55288 56.712 5.0858 55.5126 5.0858C55.4434 5.0858 55.3744 5.08732 55.3056 5.09048C55.3086 5.02181 55.3101 4.95268 55.3101 4.88342C55.3101 3.68418 54.8433 2.55689 53.9952 1.70884C52.2448 -0.0416201 49.3966 -0.0416201 47.6461 1.70884L44.0853 5.26965C43.8052 5.54984 43.6856 5.95247 43.7672 6.33999L44.5698 10.1472L44.1659 10.5512C39.4189 7.01778 33.5958 5.08123 27.655 5.08123C20.268 5.08123 13.3232 7.95781 8.09997 13.1812C2.87658 18.4045 0 25.3493 0 32.7362C0 40.1231 2.87658 47.0679 8.09997 52.2912C13.3232 57.5144 20.268 60.3911 27.655 60.3911C35.0419 60.3911 41.9867 57.5146 47.2099 52.2912C52.4333 47.0679 55.3099 40.1231 55.3099 32.7362C55.3099 26.7967 53.3754 20.9772 49.8444 16.2306L50.2491 15.8261L54.0562 16.6287ZM38.711 24.0496L36.3466 21.6852L45.1472 12.8846L45.4013 14.0899C45.4971 14.5443 45.852 14.8991 46.3063 14.9948L47.5117 15.2489L38.711 24.0496ZM37.967 32.7362C37.967 38.4222 33.341 43.0482 27.655 43.0482C21.9689 43.0482 17.3429 38.4222 17.3429 32.7362C17.3429 27.0502 21.9689 22.4242 27.655 22.4242C28.9924 22.4242 30.3102 22.6842 31.5358 23.1815L29.6576 25.0597C29.4374 25.28 29.3138 25.5789 29.3144 25.8904L29.3178 27.8568C28.7956 27.6784 28.2368 27.5802 27.655 27.5802C24.8119 27.5802 22.4989 29.8931 22.4989 32.7362C22.4989 35.5793 24.8119 37.8922 27.655 37.8922C30.498 37.8922 32.811 35.5793 32.811 32.7362C32.811 32.1562 32.7134 31.599 32.5359 31.0784L34.5058 31.0818H34.5079C34.8186 31.0818 35.1166 30.9584 35.3365 30.7386L37.2127 28.8624C37.708 30.0861 37.967 31.4018 37.967 32.7362ZM34.0233 28.7373L31.6629 28.7332L31.6588 26.373L34.6893 23.3425L37.0537 25.7069L34.0233 28.7373ZM30.4673 32.7362C30.4673 34.2868 29.2056 35.5485 27.655 35.5485C26.1043 35.5485 24.8426 34.2868 24.8426 32.7362C24.8426 31.1855 26.1043 29.9238 27.655 29.9238C28.0005 29.9238 28.3316 29.9869 28.6376 30.1013L27.2878 31.4512C26.8302 31.9088 26.8302 32.6508 27.2878 33.1083C27.5167 33.3372 27.8165 33.4516 28.1164 33.4516C28.4164 33.4516 28.7162 33.3371 28.945 33.1083L30.2926 31.7608C30.4055 32.0648 30.4673 32.3934 30.4673 32.7362ZM55.5126 7.42944C56.0859 7.42944 56.6247 7.65267 57.0299 8.05788C57.8666 8.89456 57.8666 10.2559 57.0299 11.0924L53.9181 14.2042L48.9056 13.1476L53.9947 8.05835C53.9949 8.05812 53.995 8.058 53.9952 8.05777C54.4007 7.65267 54.9396 7.42944 55.5126 7.42944ZM49.3035 3.36615C50.1401 2.52935 51.5016 2.52947 52.3382 3.36615C52.7435 3.77137 52.9666 4.31029 52.9666 4.88342C52.9666 5.45656 52.7435 5.99548 52.3382 6.4007C52.3379 6.40093 52.3378 6.40105 52.3376 6.40128L47.2485 11.4904L46.1917 6.4778L49.3035 3.36615ZM52.9663 32.7362C52.9663 46.6929 41.6117 58.0475 27.655 58.0475C13.6982 58.0475 2.34364 46.6929 2.34364 32.7362C2.34364 18.7795 13.6982 7.42487 27.655 7.42487C33.0597 7.42487 38.162 9.08159 42.4907 12.2266L38.7858 15.9315C35.4835 13.7369 31.6558 12.5809 27.655 12.5809C16.5413 12.5809 7.49965 21.6225 7.49965 32.7362C7.49965 36.1605 8.37418 39.5429 10.0286 42.5181C10.2428 42.9034 10.642 43.1206 11.0537 43.1206C11.2464 43.1206 11.4418 43.0729 11.6222 42.9727C12.1877 42.6582 12.3913 41.9447 12.0768 41.3791C10.6156 38.7515 9.84329 35.7628 9.84329 32.7362C9.84329 22.9148 17.8335 14.9245 27.655 14.9245C31.0305 14.9245 34.2661 15.8552 37.0909 17.6264L33.3063 21.411C31.5592 20.5388 29.6238 20.0805 27.655 20.0805C20.6765 20.0805 14.9993 25.7579 14.9993 32.7362C14.9993 39.7145 20.6765 45.3918 27.655 45.3918C34.6334 45.3918 40.3106 39.7145 40.3106 32.7362C40.3106 30.7706 39.8538 28.8361 38.984 27.0911L42.769 23.3062C44.5377 26.1295 45.4666 29.3623 45.4666 32.7362C45.4666 42.5576 37.4764 50.5478 27.655 50.5478C24.6273 50.5478 21.6378 49.775 19.0095 48.3128C18.4437 47.9982 17.7305 48.2016 17.4157 48.7673C17.1011 49.3328 17.3046 50.0463 17.8701 50.3609C20.8461 52.0165 24.2296 52.8915 27.655 52.8915C38.7686 52.8915 47.8103 43.8498 47.8103 32.7362C47.8103 28.7368 46.6558 24.9122 44.4637 21.6114L48.1674 17.9076C51.2697 22.1995 52.9663 27.4149 52.9663 32.7362Z" fill="#FFBF1B"/>
<path d="M14.2318 44.9868C13.9224 44.9868 13.6213 45.1122 13.4033 45.3302C13.1854 45.5481 13.0599 45.8505 13.0599 46.1587C13.0599 46.4681 13.1853 46.7692 13.4033 46.9872C13.6213 47.2052 13.9226 47.3306 14.2318 47.3306C14.54 47.3306 14.8424 47.2052 15.0603 46.9872C15.2782 46.7692 15.4037 46.4669 15.4037 46.1587C15.4037 45.8505 15.2783 45.5481 15.0603 45.3302C14.8424 45.1122 14.54 44.9868 14.2318 44.9868Z" fill="#FFBF1B"/>
</g>
<defs>
<clipPath id="clip0_17_271">
<rect width="60" height="60" fill="white" transform="translate(0 0.392822)"/>
</clipPath>
</defs>
</svg>
