<svg width="60" height="61" viewBox="0 0 60 61" fill="none" xmlns="http://www.w3.org/2000/svg">
<g clip-path="url(#clip0_17_249)">
<path d="M45.9999 0.853027H13.9999C12.346 0.853027 10.9999 2.19904 10.9999 3.85303C10.9999 5.50701 12.346 6.85303 13.9999 6.85303H46C47.654 6.85303 49 5.50701 49 3.85303C49 2.19904 47.6538 0.853027 45.9999 0.853027ZM45.9999 4.85299H13.9999C13.4489 4.85299 13 4.40498 13 3.85303C13 3.30107 13.4489 2.85307 13.9999 2.85307H46C46.551 2.85307 46.9999 3.30107 46.9999 3.85303C46.9999 4.40498 46.5509 4.85299 45.9999 4.85299Z" fill="#FFBF1B"/>
<path d="M45.9999 54.853H13.9999C12.346 54.853 10.9999 56.199 10.9999 57.853C10.9999 59.507 12.346 60.853 13.9999 60.853H46C47.654 60.853 49 59.507 49 57.853C49 56.199 47.6538 54.853 45.9999 54.853ZM45.9999 58.853H13.9999C13.4489 58.853 13 58.405 13 57.853C13 57.3011 13.4489 56.8531 13.9999 56.8531H46C46.551 56.8531 46.9999 57.3011 46.9999 57.853C46.9999 58.405 46.5509 58.853 45.9999 58.853Z" fill="#FFBF1B"/>
<path d="M37.1261 27.1409C42.204 22.063 45 15.3119 45 8.13193V5.85299C45 5.29998 44.552 4.85303 44 4.85303H16C15.448 4.85303 15 5.29998 15 5.85299V8.13193C15 15.313 17.796 22.063 22.873 27.1409L23.878 28.1459C24.591 28.8589 25 29.8449 25 30.853C25 31.861 24.591 32.847 23.8789 33.56L22.8739 34.565C17.796 39.643 15 46.3929 15 53.574V55.8529C15 56.4059 15.448 56.8529 16 56.8529H43.9999C44.5519 56.8529 44.9999 56.4059 44.9999 55.8529V53.574C44.9999 46.394 42.2039 39.643 37.1259 34.565L36.1209 33.56C35.3979 32.8369 34.9999 31.876 34.9999 30.853C34.9999 29.8299 35.3979 28.869 36.1209 28.1459L37.1261 27.1409ZM34.707 26.7319C33.606 27.832 33 29.2949 33 30.853C33 32.411 33.606 33.8739 34.707 34.974L35.712 35.979C40.412 40.679 43 46.9279 43 53.574V54.853H17V53.574C17 46.927 19.588 40.679 24.287 35.979L25.292 34.974C26.394 33.8739 27 32.4099 27 30.853C27 29.296 26.394 27.832 25.293 26.7319L24.288 25.7269C19.588 21.0269 17 14.7779 17 8.13193V6.85295H43.0001V8.13193C43.0001 14.778 40.4121 21.0269 35.7121 25.7269L34.707 26.7319Z" fill="#FFBF1B"/>
<path d="M38.4509 17.7C38.3499 17.4461 38.006 16.853 36.9999 16.853C31.8039 16.853 29.4889 15.74 28.5708 15.076C27.4258 14.247 25.9569 14.03 24.6378 14.4969C23.3788 14.9419 22.4568 15.9319 22.1098 17.2119C22.0198 17.545 22.0038 17.761 22.0038 17.761C21.9888 17.958 22.0318 18.171 22.1288 18.344C23.0658 20.005 24.1468 21.7569 25.7028 23.313L26.7067 24.318C28.1858 25.795 28.9997 27.7609 28.9997 29.853C28.9997 30.406 29.4478 30.8529 29.9997 30.8529C30.5517 30.8529 30.9997 30.406 30.9997 29.853C30.9997 27.762 31.8137 25.7959 33.2916 24.318L34.2977 23.3119C34.5447 23.0659 34.8666 22.7619 35.2206 22.43C37.8059 19.999 38.893 18.816 38.4509 17.7ZM33.849 20.9731C33.479 21.3221 33.1409 21.6401 32.883 21.898L31.8769 22.9041C31.1 23.6801 30.47 24.5641 29.9989 25.5221C29.5279 24.5641 28.8979 23.6801 28.1208 22.9041L27.1168 21.8991C25.8888 20.6701 24.9898 19.3171 24.0548 17.6861C24.3018 16.8511 24.9418 16.511 25.3048 16.382C26.0028 16.135 26.7858 16.2521 27.3978 16.6961C28.6717 17.6181 31.1838 18.705 35.9958 18.8391C35.3779 19.5351 34.408 20.4481 33.849 20.9731Z" fill="#FFBF1B"/>
<path d="M40.9311 51.775C40.6801 48.533 39.3801 47.187 37.8762 45.627C37.6732 45.4159 37.4612 45.197 37.2442 44.965C35.9881 43.6229 34.2142 42.853 32.3751 42.853H27.6241C25.7862 42.853 24.0111 43.6231 22.7551 44.965C22.5381 45.197 22.3271 45.415 22.124 45.626C20.619 47.186 19.319 48.533 19.0691 51.776C19.0471 52.054 19.143 52.328 19.3321 52.5331C19.522 52.7371 19.7871 52.8531 20.066 52.8531H39.934C40.2119 52.8531 40.478 52.7371 40.6679 52.5321C40.8571 52.3271 40.9521 52.052 40.9311 51.775ZM21.2051 50.8531C21.5441 49.1071 22.3521 48.2711 23.564 47.0151C23.774 46.7971 23.992 46.5701 24.2161 46.331C25.0951 45.3911 26.3371 44.8531 27.6241 44.8531H32.3751C33.6631 44.8531 34.9051 45.392 35.7841 46.3301C36.0091 46.5721 36.2271 46.7971 36.4381 47.0161C37.6492 48.2721 38.4561 49.1081 38.7962 50.8531H21.2051Z" fill="#FFBF1B"/>
<path d="M29.97 32.853C29.418 32.853 28.97 33.3 28.97 33.853V34.8529C28.97 35.406 29.418 35.8529 29.97 35.8529C30.5219 35.8529 30.97 35.406 30.97 34.8529V33.853C30.97 33.3 30.5219 32.853 29.97 32.853Z" fill="#FFBF1B"/>
<path d="M29.97 37.853C29.418 37.853 28.97 38.3 28.97 38.853V39.8529C28.97 40.406 29.418 40.8529 29.97 40.8529C30.5219 40.8529 30.97 40.406 30.97 39.8529V38.853C30.97 38.3001 30.5219 37.853 29.97 37.853Z" fill="#FFBF1B"/>
</g>
<defs>
<clipPath id="clip0_17_249">
<rect width="60" height="60" fill="white" transform="translate(0 0.853027)"/>
</clipPath>
</defs>
</svg>
