<svg width="60" height="61" viewBox="0 0 60 61" fill="none" xmlns="http://www.w3.org/2000/svg">
<g opacity="0.8" clip-path="url(#clip0_17_221)">
<path d="M59.1211 47.8703C59.6066 47.8703 60 47.4768 60 46.9914V45.6444C60 43.2147 58.4496 41.0713 56.1415 40.3108L50.6481 38.5033V36.6013C52.5609 35.4537 53.8443 33.3599 53.8443 30.9715V27.1834C53.8443 23.5656 50.901 20.6223 47.2832 20.6223C45.1522 20.6223 43.256 21.6442 42.0567 23.2228C41.3929 21.977 40.267 21.0054 38.8576 20.5425L33.3648 18.7341V16.8321C35.2777 15.6845 36.561 13.5907 36.561 11.2023V7.41412C36.5611 3.79631 33.6178 0.853027 30 0.853027C26.3822 0.853027 23.4389 3.79631 23.4389 7.41412V11.2022C23.4389 13.5906 24.7222 15.6844 26.6351 16.832V18.734L21.1429 20.5423C19.7331 21.0054 18.6071 21.977 17.9433 23.2228C16.744 21.6441 14.8478 20.6223 12.7168 20.6223C9.09902 20.6223 6.15574 23.5656 6.15574 27.1834V30.9715C6.15574 33.3599 7.43906 35.4537 9.35191 36.6013V38.5033L3.85805 40.3109C1.55039 41.0713 0 43.2147 0 45.6444V46.9914C0 47.4768 0.393398 47.8703 0.878906 47.8703C1.36441 47.8703 1.75781 47.4768 1.75781 46.9914V45.6444C1.75781 43.9752 2.82293 42.5028 4.40777 41.9804L9.55359 40.2872C10.0239 41.5792 11.2642 42.5043 12.7167 42.5043C14.1691 42.5043 15.4095 41.5791 15.8797 40.2872L21.0248 41.9802C22.1527 42.3519 23.0265 43.2081 23.4307 44.2931L21.1423 45.0463C18.834 45.8059 17.2832 47.949 17.2832 50.3789V51.4005H6.72973V49.2014C6.72973 48.716 6.33633 48.3225 5.85082 48.3225C5.36531 48.3225 4.97191 48.716 4.97191 49.2014V51.4005H1.75781V51.0969C1.75781 50.6115 1.36441 50.218 0.878906 50.218C0.393398 50.218 0 50.6115 0 51.0969V52.2794C0 52.7647 0.393398 53.1583 0.878906 53.1583H17.2832V59.9739C17.2832 60.4593 17.6766 60.8528 18.1621 60.8528H41.8378C42.3233 60.8528 42.7167 60.4593 42.7167 59.9739V58.7999C42.7167 58.3145 42.3233 57.921 41.8378 57.921C41.3523 57.921 40.9589 58.3145 40.9589 58.7999V59.0952H37.7449V53.9369C37.7449 53.4515 37.3515 53.0579 36.866 53.0579C36.3805 53.0579 35.9871 53.4515 35.9871 53.9369V59.0952H24.0129V53.9369C24.0129 53.4515 23.6195 53.0579 23.134 53.0579C22.6485 53.0579 22.2551 53.4515 22.2551 53.9369V59.0952H19.041V50.3792C19.041 48.7101 20.1062 47.2379 21.6918 46.7162L26.837 45.0229C27.3074 46.3146 28.5476 47.2397 30 47.2397C31.4524 47.2397 32.6926 46.3147 33.163 45.0229L38.3082 46.7162C39.8938 47.2381 40.959 48.7101 40.959 50.3792V54.6966C40.959 55.182 41.3524 55.5755 41.8379 55.5755C42.3234 55.5755 42.7168 55.182 42.7168 54.6966V53.1585H59.1211C59.6066 53.1585 60 52.765 60 52.2796V51.0972C60 50.6118 59.6066 50.2183 59.1211 50.2183C58.6356 50.2183 58.2422 50.6118 58.2422 51.0972V51.4007H55.0281V49.2017C55.0281 48.7163 54.6347 48.3228 54.1492 48.3228C53.6637 48.3228 53.2703 48.7163 53.2703 49.2017V51.4007H42.7167V50.3792C42.7167 47.9492 41.1659 45.8062 38.8576 45.0465L36.5692 44.2934C36.9734 43.2085 37.8471 42.3523 38.9746 41.9806L44.1202 40.2874C44.5904 41.5793 45.8307 42.5045 47.2832 42.5045C48.7357 42.5045 49.976 41.5793 50.4463 40.2874L55.5916 41.9806C57.1771 42.5028 58.2422 43.9752 58.2422 45.6444V46.9914C58.2422 47.4768 58.6356 47.8703 59.1211 47.8703ZM47.2832 22.38C49.9317 22.38 52.0864 24.5347 52.0864 27.1833V30.9714C52.0864 33.6199 49.9316 35.7747 47.2832 35.7747C44.6347 35.7747 42.48 33.6199 42.48 30.9714V27.1833C42.48 24.5347 44.6347 22.38 47.2832 22.38ZM25.1967 11.2022V7.41412C25.1967 4.76557 27.3514 2.61084 30 2.61084C32.6486 2.61084 34.8033 4.76557 34.8033 7.41412V11.2022C34.8033 13.8508 32.6484 16.0055 30 16.0055C27.3516 16.0055 25.1967 13.8508 25.1967 11.2022ZM30 17.7633C30.5543 17.7633 31.0925 17.6936 31.6071 17.5635V19.3467C31.6069 19.3551 31.607 19.3633 31.6071 19.3715C31.6064 20.2571 30.8858 20.9773 30.0001 20.9773C29.1144 20.9773 28.3937 20.2571 28.3931 19.3715C28.3931 19.3631 28.3932 19.3549 28.3931 19.3467V17.5635C28.9075 17.6935 29.4457 17.7633 30 17.7633ZM21.692 22.2121L26.8369 20.5181C27.3071 21.81 28.5475 22.7351 29.9999 22.7351C31.4523 22.7351 32.6926 21.81 33.1629 20.5181L38.3084 22.2122C39.7775 22.6948 40.7964 23.9814 40.9388 25.5109C40.7978 26.0451 40.722 26.6054 40.722 27.1833V30.9714C40.722 31.194 40.7333 31.4141 40.7551 31.6312H36.5536C36.4027 28.1462 33.5213 25.3573 29.9998 25.3573C26.4783 25.3573 23.5969 28.1462 23.4459 31.6312H19.2444C19.2662 31.4141 19.2776 31.194 19.2776 30.9714V27.1833C19.2776 26.6054 19.2018 26.0452 19.0608 25.5109C19.2034 23.9815 20.2223 22.6949 21.692 22.2121ZM30 40.5097C27.3514 40.5097 25.1967 38.355 25.1967 35.7065V31.9184C25.1967 29.2698 27.3516 27.1151 30 27.1151C32.6484 27.1151 34.8033 29.2698 34.8033 31.9184V35.7065C34.8033 38.355 32.6486 40.5097 30 40.5097ZM7.91344 30.9714V27.1833C7.91344 24.5347 10.0683 22.38 12.7167 22.38C15.3652 22.38 17.5199 24.5347 17.5199 27.1833V30.9714C17.5199 33.6199 15.3652 35.7747 12.7167 35.7747C10.0683 35.7747 7.91344 33.6199 7.91344 30.9714ZM14.3237 39.1395C14.3237 40.0256 13.6029 40.7465 12.7167 40.7465C11.8305 40.7465 11.1096 40.0255 11.1096 39.1395V37.3327C11.6241 37.4628 12.1623 37.5325 12.7167 37.5325C13.271 37.5325 13.8093 37.4628 14.3237 37.3327V39.1395ZM21.5747 40.3108L16.0816 38.5033V36.6012C17.3108 35.8637 18.2787 34.7351 18.8143 33.389H23.4389V35.7065C23.4389 38.0949 24.7222 40.1887 26.6351 41.3363V43.2386L25.1 43.7438C24.5227 42.1333 23.2393 40.8594 21.5747 40.3108ZM30 45.4818C29.1138 45.4818 28.3929 44.7608 28.3929 43.8747V43.864C28.3929 43.8622 28.3929 43.8605 28.3929 43.8588V42.0679C28.9073 42.198 29.4456 42.2677 30 42.2677C30.5544 42.2677 31.0925 42.198 31.6071 42.0679V43.8588V43.864V43.8747C31.6071 44.7608 30.8862 45.4818 30 45.4818ZM38.425 40.3109C36.7607 40.8594 35.4773 42.1333 34.9001 43.7439L33.3649 43.2387V41.3364C35.2778 40.1888 36.5611 38.095 36.5611 35.7066V33.389H41.1857C41.7213 34.7352 42.6892 35.8638 43.9184 36.6012V38.5033L38.425 40.3109ZM47.2832 40.7466C46.397 40.7466 45.6762 40.0256 45.6762 39.1396V37.3328C46.1906 37.4629 46.7289 37.5326 47.2832 37.5326C47.8375 37.5326 48.3757 37.4629 48.8903 37.3328V39.1396C48.8903 40.0256 48.1693 40.7466 47.2832 40.7466Z" fill="#FFBF1B"/>
</g>
<defs>
<clipPath id="clip0_17_221">
<rect width="60" height="60" fill="white" transform="translate(0 0.853027)"/>
</clipPath>
</defs>
</svg>
